<?xml version="1.0" encoding="UTF-8"?>
<svg xmlns="http://www.w3.org/2000/svg" xmlns:xlink="http://www.w3.org/1999/xlink" viewBox="0 0 1300 1300" width="1300" height="1300">
<style>
  .bg { fill: #0c1116; }
.panel { fill: #11161c; stroke: #2a3340; stroke-width: 1; }
.grid { stroke: #1c2430; stroke-width: 1; }
.axis { stroke: #4a5260; stroke-width: 1; }
.ground { stroke: #6b5a26; stroke-width: 1.5; stroke-dasharray: 4 3; }
.tick { fill: #7a8290; font: 11px monospace; }
.title { fill: #d6deea; font: 14px monospace; font-weight: bold; }
.subtitle { fill: #7a8290; font: 11px monospace; }
.summary { fill: #d6deea; font: 13px monospace; }
.summary-dim { fill: #7a8290; font: 12px monospace; }
.track { fill: none; stroke-width: 1.8; }
.start { stroke-width: 1.2; }
.end { stroke-width: 1.0; }
</style>
<rect class="bg" width="1300" height="1300" />
<g transform="translate(60,60)">
<rect class="panel" width="560" height="560" />
<text class="title" x="10" y="18">SIDE  X x Y</text>
<text class="subtitle" x="10" y="32">X -&gt; range (horiz),  Y -&gt; alt (vert)</text>
<line class="grid" x1="60.0" y1="50.0" x2="60.0" y2="520.0" />
<line class="grid" x1="60.0" y1="520.0" x2="530.0" y2="520.0" />
<text class="tick" x="60.0" y="534.0" text-anchor="middle">0</text>
<text class="tick" x="56.0" y="524.0" text-anchor="end">0</text>
<line class="grid" x1="154.0" y1="50.0" x2="154.0" y2="520.0" />
<line class="grid" x1="60.0" y1="426.0" x2="530.0" y2="426.0" />
<text class="tick" x="154.0" y="534.0" text-anchor="middle">1.5k</text>
<text class="tick" x="56.0" y="430.0" text-anchor="end">1.5k</text>
<line class="grid" x1="248.0" y1="50.0" x2="248.0" y2="520.0" />
<line class="grid" x1="60.0" y1="332.0" x2="530.0" y2="332.0" />
<text class="tick" x="248.0" y="534.0" text-anchor="middle">3.0k</text>
<text class="tick" x="56.0" y="336.0" text-anchor="end">3.0k</text>
<line class="grid" x1="342.0" y1="50.0" x2="342.0" y2="520.0" />
<line class="grid" x1="60.0" y1="238.0" x2="530.0" y2="238.0" />
<text class="tick" x="342.0" y="534.0" text-anchor="middle">4.5k</text>
<text class="tick" x="56.0" y="242.0" text-anchor="end">4.5k</text>
<line class="grid" x1="436.0" y1="50.0" x2="436.0" y2="520.0" />
<line class="grid" x1="60.0" y1="144.0" x2="530.0" y2="144.0" />
<text class="tick" x="436.0" y="534.0" text-anchor="middle">6.0k</text>
<text class="tick" x="56.0" y="148.0" text-anchor="end">6.0k</text>
<line class="grid" x1="530.0" y1="50.0" x2="530.0" y2="520.0" />
<line class="grid" x1="60.0" y1="50.0" x2="530.0" y2="50.0" />
<text class="tick" x="530.0" y="534.0" text-anchor="middle">7.5k</text>
<text class="tick" x="56.0" y="54.0" text-anchor="end">7.5k</text>
<line class="axis" x1="60.0" y1="50.0" x2="60.0" y2="520.0" />
<line class="axis" x1="60.0" y1="520.0" x2="530.0" y2="520.0" />
<line class="ground" x1="60.0" y1="520.0" x2="530.0" y2="520.0" />
<path id="p0t0" class="track" stroke="#e63946" d="M 60.0 520.0 L 61.6 520.0 L 63.1 520.0 L 64.7 519.9 L 66.3 519.9 L 67.8 519.8 L 69.4 519.7 L 71.0 519.6 L 72.5 519.5 L 74.1 519.3 L 75.6 519.2 L 77.2 519.0 L 78.8 518.8 L 80.3 518.6 L 81.9 518.4 L 83.4 518.2 L 85.0 517.9 L 86.5 517.7 L 88.0 517.4 L 89.6 517.1 L 91.1 516.8 L 92.7 516.5 L 94.2 516.2 L 95.7 515.8 L 97.2 515.5 L 98.8 515.1 L 100.3 514.7 L 101.8 514.4 L 103.3 514.0 L 104.8 513.5 L 106.3 513.1 L 107.9 512.7 L 109.4 512.2 L 110.9 511.8 L 112.4 511.3 L 113.8 510.8 L 115.3 510.4 L 116.8 509.9 L 118.3 509.4 L 119.8 508.8 L 121.3 508.3 L 122.7 507.8 L 124.2 507.2 L 125.7 506.7 L 127.1 506.1 L 128.6 505.6 L 130.1 505.0 L 131.5 504.4 L 133.0 503.8 L 134.4 503.2 L 135.9 502.6 L 137.3 502.0 L 138.7 501.4 L 140.2 500.8 L 141.6 500.1 L 143.0 499.5 L 144.5 498.8 L 145.9 498.2 L 147.3 497.5 L 148.7 496.9 L 150.2 496.2 L 151.6 495.5 L 153.0 494.8 L 154.4 494.2 L 155.8 493.5 L 157.2 492.8 L 158.6 492.1 L 160.0 491.4 L 161.4 490.6 L 162.8 489.9 L 164.2 489.2 L 165.6 488.5 L 167.0 487.7 L 168.3 487.0 L 169.7 486.3 L 171.1 485.5 L 172.5 484.8 L 173.9 484.0 L 175.2 483.3 L 176.6 482.5 L 178.0 481.8 L 179.3 481.0 L 180.7 480.2 L 182.1 479.5 L 183.4 478.7 L 184.8 477.9 L 186.2 477.1 L 187.5 476.4 L 188.9 475.6 L 190.2 474.8 L 191.6 474.0 L 192.9 473.2 L 194.3 472.4 L 195.6 471.6 L 197.0 470.8 L 198.3 470.0 L 199.7 469.2 L 201.0 468.4 L 202.4 467.6 L 203.7 466.8 L 205.1 466.0 L 206.4 465.2 L 207.7 464.4 L 209.1 463.6 L 210.4 462.7 L 211.8 461.9 L 213.1 461.1 L 214.4 460.3 L 215.8 459.5 L 217.1 458.6 L 218.4 457.8 L 219.8 457.0 L 221.1 456.2 L 222.4 455.3 L 223.8 454.5 L 225.1 453.7 L 226.4 452.8 L 227.7 452.0 L 229.1 451.2 L 230.4 450.4 L 231.7 449.5 L 233.1 448.7 L 234.4 447.9 L 235.7 447.0 L 237.0 446.2 L 238.4 445.4 L 239.7 444.5 L 241.0 443.7 L 242.3 442.8 L 243.7 442.0 L 245.0 441.2 L 246.3 440.3 L 247.6 439.5 L 249.0 438.7 L 250.3 437.8 L 251.6 437.0 L 252.9 436.1 L 254.3 435.3 L 255.6 434.5 L 256.9 433.6 L 258.2 432.8 L 259.6 432.0 L 260.9 431.1 L 262.2 430.3 L 263.5 429.4 L 264.9 428.6 L 266.2 427.8 L 267.5 426.9 L 268.6 426.2" pathLength="231.6" stroke-dasharray="231.6" stroke-dashoffset="231.6">
<animate attributeName="stroke-dashoffset" values="231.6;0" dur="14.78s" repeatCount="indefinite" />
</path>
<circle cx="60.0" cy="520.0" r="4" fill="none" stroke="#e63946" stroke-width="1.4" />
<circle r="5" fill="#e63946" stroke="#000" stroke-width="0.6">
<animateMotion dur="14.78s" repeatCount="indefinite" rotate="0">
<mpath xlink:href="#p0t0" href="#p0t0" />
</animateMotion>
</circle>
<path id="p0t1" class="track" stroke="#1d3557" d="M 436.0 426.0 L 434.9 426.0 L 433.7 426.0 L 432.6 426.0 L 431.5 426.0 L 430.4 426.0 L 429.2 426.0 L 428.1 426.0 L 427.0 426.0 L 425.8 426.0 L 424.7 426.0 L 423.6 426.0 L 422.5 426.0 L 421.3 426.0 L 420.2 426.0 L 419.1 426.0 L 418.0 426.0 L 416.8 426.0 L 415.7 426.0 L 414.6 426.0 L 413.4 426.0 L 412.3 426.0 L 411.2 426.0 L 410.1 426.0 L 408.9 426.0 L 407.8 426.0 L 406.7 426.0 L 405.5 426.0 L 404.4 426.0 L 403.3 426.0 L 402.2 426.0 L 401.0 426.0 L 399.9 426.0 L 398.8 426.0 L 397.6 426.0 L 396.5 426.0 L 395.4 426.0 L 394.3 426.0 L 393.1 426.0 L 392.0 426.0 L 390.9 426.0 L 389.8 426.0 L 388.6 426.0 L 387.5 426.0 L 386.4 426.0 L 385.2 426.0 L 384.1 426.0 L 383.0 426.0 L 381.9 426.0 L 380.7 426.0 L 379.6 426.0 L 378.5 426.0 L 377.3 426.0 L 376.2 426.0 L 375.1 426.0 L 374.0 426.0 L 372.8 426.0 L 371.7 426.0 L 370.6 426.0 L 369.4 426.0 L 368.3 426.0 L 367.2 426.0 L 366.1 426.0 L 364.9 426.0 L 363.8 426.0 L 362.7 426.0 L 361.6 426.0 L 360.4 426.0 L 359.3 426.0 L 358.2 426.0 L 357.0 426.0 L 355.9 426.0 L 354.8 426.0 L 353.7 426.0 L 352.5 426.0 L 351.4 426.0 L 350.3 426.0 L 349.1 426.0 L 348.0 426.0 L 346.9 426.0 L 345.8 426.0 L 344.6 426.0 L 343.5 426.0 L 342.4 426.0 L 341.2 426.0 L 340.1 426.0 L 339.0 426.0 L 337.9 426.0 L 336.7 426.0 L 335.6 426.0 L 334.5 426.0 L 333.4 426.0 L 332.2 426.0 L 331.1 426.0 L 330.0 426.0 L 328.8 426.0 L 327.7 426.0 L 326.6 426.0 L 325.5 426.0 L 324.3 426.0 L 323.2 426.0 L 322.1 426.0 L 320.9 426.0 L 319.8 426.0 L 318.7 426.0 L 317.6 426.0 L 316.4 426.0 L 315.3 426.0 L 314.2 426.0 L 313.0 426.0 L 311.9 426.0 L 310.8 426.0 L 309.7 426.0 L 308.5 426.0 L 307.4 426.0 L 306.3 426.0 L 305.2 426.0 L 304.0 426.0 L 302.9 426.0 L 301.8 426.0 L 300.6 426.0 L 299.5 426.0 L 298.4 426.0 L 297.3 426.0 L 296.1 426.0 L 295.0 426.0 L 293.9 426.0 L 292.7 426.0 L 291.6 426.0 L 290.5 426.0 L 289.4 426.0 L 288.2 426.0 L 287.1 426.0 L 286.0 426.0 L 284.8 426.0 L 283.7 426.0 L 282.6 426.0 L 281.5 426.0 L 280.3 426.0 L 279.2 426.0 L 278.1 426.0 L 277.0 426.0 L 275.8 426.0 L 274.7 426.0 L 273.6 426.0 L 272.4 426.0 L 271.3 426.0 L 270.2 426.0 L 269.3 426.0" pathLength="166.7" stroke-dasharray="166.7" stroke-dashoffset="166.7">
<animate attributeName="stroke-dashoffset" values="166.7;0" dur="14.78s" repeatCount="indefinite" />
</path>
<circle cx="436.0" cy="426.0" r="4" fill="none" stroke="#1d3557" stroke-width="1.4" />
<circle r="5" fill="#1d3557" stroke="#000" stroke-width="0.6">
<animateMotion dur="14.78s" repeatCount="indefinite" rotate="0">
<mpath xlink:href="#p0t1" href="#p0t1" />
</animateMotion>
</circle>
</g>
<g transform="translate(680,60)">
<rect class="panel" width="560" height="560" />
<text class="title" x="10" y="18">TOP   X x Z</text>
<text class="subtitle" x="10" y="32">X -&gt; range (horiz),  Z -&gt; cross (vert)</text>
<line class="grid" x1="60.0" y1="50.0" x2="60.0" y2="520.0" />
<line class="grid" x1="60.0" y1="520.0" x2="530.0" y2="520.0" />
<text class="tick" x="60.0" y="534.0" text-anchor="middle">0</text>
<text class="tick" x="56.0" y="524.0" text-anchor="end">0</text>
<line class="grid" x1="154.0" y1="50.0" x2="154.0" y2="520.0" />
<line class="grid" x1="60.0" y1="426.0" x2="530.0" y2="426.0" />
<text class="tick" x="154.0" y="534.0" text-anchor="middle">1.5k</text>
<text class="tick" x="56.0" y="430.0" text-anchor="end">1.5k</text>
<line class="grid" x1="248.0" y1="50.0" x2="248.0" y2="520.0" />
<line class="grid" x1="60.0" y1="332.0" x2="530.0" y2="332.0" />
<text class="tick" x="248.0" y="534.0" text-anchor="middle">3.0k</text>
<text class="tick" x="56.0" y="336.0" text-anchor="end">3.0k</text>
<line class="grid" x1="342.0" y1="50.0" x2="342.0" y2="520.0" />
<line class="grid" x1="60.0" y1="238.0" x2="530.0" y2="238.0" />
<text class="tick" x="342.0" y="534.0" text-anchor="middle">4.5k</text>
<text class="tick" x="56.0" y="242.0" text-anchor="end">4.5k</text>
<line class="grid" x1="436.0" y1="50.0" x2="436.0" y2="520.0" />
<line class="grid" x1="60.0" y1="144.0" x2="530.0" y2="144.0" />
<text class="tick" x="436.0" y="534.0" text-anchor="middle">6.0k</text>
<text class="tick" x="56.0" y="148.0" text-anchor="end">6.0k</text>
<line class="grid" x1="530.0" y1="50.0" x2="530.0" y2="520.0" />
<line class="grid" x1="60.0" y1="50.0" x2="530.0" y2="50.0" />
<text class="tick" x="530.0" y="534.0" text-anchor="middle">7.5k</text>
<text class="tick" x="56.0" y="54.0" text-anchor="end">7.5k</text>
<line class="axis" x1="60.0" y1="50.0" x2="60.0" y2="520.0" />
<line class="axis" x1="60.0" y1="520.0" x2="530.0" y2="520.0" />
<path id="p1t0" class="track" stroke="#e63946" d="M 60.0 520.0 L 61.6 520.0 L 63.1 520.0 L 64.7 520.0 L 66.3 520.0 L 67.8 520.0 L 69.4 520.0 L 71.0 520.0 L 72.5 520.0 L 74.1 520.0 L 75.6 520.0 L 77.2 520.0 L 78.8 520.0 L 80.3 520.0 L 81.9 520.0 L 83.4 520.0 L 85.0 520.0 L 86.5 520.0 L 88.0 520.0 L 89.6 520.0 L 91.1 520.0 L 92.7 520.0 L 94.2 520.0 L 95.7 520.0 L 97.2 520.0 L 98.8 520.0 L 100.3 520.0 L 101.8 520.0 L 103.3 520.0 L 104.8 520.0 L 106.3 520.0 L 107.9 520.0 L 109.4 520.0 L 110.9 520.0 L 112.4 520.0 L 113.8 520.0 L 115.3 520.0 L 116.8 520.0 L 118.3 520.0 L 119.8 520.0 L 121.3 520.0 L 122.7 520.0 L 124.2 520.0 L 125.7 520.0 L 127.1 520.0 L 128.6 520.0 L 130.1 520.0 L 131.5 520.0 L 133.0 520.0 L 134.4 520.0 L 135.9 520.0 L 137.3 520.0 L 138.7 520.0 L 140.2 520.0 L 141.6 520.0 L 143.0 520.0 L 144.5 520.0 L 145.9 520.0 L 147.3 520.0 L 148.7 520.0 L 150.2 520.0 L 151.6 520.0 L 153.0 520.0 L 154.4 520.0 L 155.8 520.0 L 157.2 520.0 L 158.6 520.0 L 160.0 520.0 L 161.4 520.0 L 162.8 520.0 L 164.2 520.0 L 165.6 520.0 L 167.0 520.0 L 168.3 520.0 L 169.7 520.0 L 171.1 520.0 L 172.5 520.0 L 173.9 520.0 L 175.2 520.0 L 176.6 520.0 L 178.0 520.0 L 179.3 520.0 L 180.7 520.0 L 182.1 520.0 L 183.4 520.0 L 184.8 520.0 L 186.2 520.0 L 187.5 520.0 L 188.9 520.0 L 190.2 520.0 L 191.6 520.0 L 192.9 520.0 L 194.3 520.0 L 195.6 520.0 L 197.0 520.0 L 198.3 520.0 L 199.7 520.0 L 201.0 520.0 L 202.4 520.0 L 203.7 520.0 L 205.1 520.0 L 206.4 520.0 L 207.7 520.0 L 209.1 520.0 L 210.4 520.0 L 211.8 520.0 L 213.1 520.0 L 214.4 520.0 L 215.8 520.0 L 217.1 520.0 L 218.4 520.0 L 219.8 520.0 L 221.1 520.0 L 222.4 520.0 L 223.8 520.0 L 225.1 520.0 L 226.4 520.0 L 227.7 520.0 L 229.1 520.0 L 230.4 520.0 L 231.7 520.0 L 233.1 520.0 L 234.4 520.0 L 235.7 520.0 L 237.0 520.0 L 238.4 520.0 L 239.7 520.0 L 241.0 520.0 L 242.3 520.0 L 243.7 520.0 L 245.0 520.0 L 246.3 520.0 L 247.6 520.0 L 249.0 520.0 L 250.3 520.0 L 251.6 520.0 L 252.9 520.0 L 254.3 520.0 L 255.6 520.0 L 256.9 520.0 L 258.2 520.0 L 259.6 520.0 L 260.9 520.0 L 262.2 520.0 L 263.5 520.0 L 264.9 520.0 L 266.2 520.0 L 267.5 520.0 L 268.6 520.0" pathLength="208.6" stroke-dasharray="208.6" stroke-dashoffset="208.6">
<animate attributeName="stroke-dashoffset" values="208.6;0" dur="14.78s" repeatCount="indefinite" />
</path>
<circle cx="60.0" cy="520.0" r="4" fill="none" stroke="#e63946" stroke-width="1.4" />
<circle r="5" fill="#e63946" stroke="#000" stroke-width="0.6">
<animateMotion dur="14.78s" repeatCount="indefinite" rotate="0">
<mpath xlink:href="#p1t0" href="#p1t0" />
</animateMotion>
</circle>
<path id="p1t1" class="track" stroke="#1d3557" d="M 436.0 520.0 L 434.9 520.0 L 433.7 520.0 L 432.6 520.0 L 431.5 520.0 L 430.4 520.0 L 429.2 520.0 L 428.1 520.0 L 427.0 520.0 L 425.8 520.0 L 424.7 520.0 L 423.6 520.0 L 422.5 520.0 L 421.3 520.0 L 420.2 520.0 L 419.1 520.0 L 418.0 520.0 L 416.8 520.0 L 415.7 520.0 L 414.6 520.0 L 413.4 520.0 L 412.3 520.0 L 411.2 520.0 L 410.1 520.0 L 408.9 520.0 L 407.8 520.0 L 406.7 520.0 L 405.5 520.0 L 404.4 520.0 L 403.3 520.0 L 402.2 520.0 L 401.0 520.0 L 399.9 520.0 L 398.8 520.0 L 397.6 520.0 L 396.5 520.0 L 395.4 520.0 L 394.3 520.0 L 393.1 520.0 L 392.0 520.0 L 390.9 520.0 L 389.8 520.0 L 388.6 520.0 L 387.5 520.0 L 386.4 520.0 L 385.2 520.0 L 384.1 520.0 L 383.0 520.0 L 381.9 520.0 L 380.7 520.0 L 379.6 520.0 L 378.5 520.0 L 377.3 520.0 L 376.2 520.0 L 375.1 520.0 L 374.0 520.0 L 372.8 520.0 L 371.7 520.0 L 370.6 520.0 L 369.4 520.0 L 368.3 520.0 L 367.2 520.0 L 366.1 520.0 L 364.9 520.0 L 363.8 520.0 L 362.7 520.0 L 361.6 520.0 L 360.4 520.0 L 359.3 520.0 L 358.2 520.0 L 357.0 520.0 L 355.9 520.0 L 354.8 520.0 L 353.7 520.0 L 352.5 520.0 L 351.4 520.0 L 350.3 520.0 L 349.1 520.0 L 348.0 520.0 L 346.9 520.0 L 345.8 520.0 L 344.6 520.0 L 343.5 520.0 L 342.4 520.0 L 341.2 520.0 L 340.1 520.0 L 339.0 520.0 L 337.9 520.0 L 336.7 520.0 L 335.6 520.0 L 334.5 520.0 L 333.4 520.0 L 332.2 520.0 L 331.1 520.0 L 330.0 520.0 L 328.8 520.0 L 327.7 520.0 L 326.6 520.0 L 325.5 520.0 L 324.3 520.0 L 323.2 520.0 L 322.1 520.0 L 320.9 520.0 L 319.8 520.0 L 318.7 520.0 L 317.6 520.0 L 316.4 520.0 L 315.3 520.0 L 314.2 520.0 L 313.0 520.0 L 311.9 520.0 L 310.8 520.0 L 309.7 520.0 L 308.5 520.0 L 307.4 520.0 L 306.3 520.0 L 305.2 520.0 L 304.0 520.0 L 302.9 520.0 L 301.8 520.0 L 300.6 520.0 L 299.5 520.0 L 298.4 520.0 L 297.3 520.0 L 296.1 520.0 L 295.0 520.0 L 293.9 520.0 L 292.7 520.0 L 291.6 520.0 L 290.5 520.0 L 289.4 520.0 L 288.2 520.0 L 287.1 520.0 L 286.0 520.0 L 284.8 520.0 L 283.7 520.0 L 282.6 520.0 L 281.5 520.0 L 280.3 520.0 L 279.2 520.0 L 278.1 520.0 L 277.0 520.0 L 275.8 520.0 L 274.7 520.0 L 273.6 520.0 L 272.4 520.0 L 271.3 520.0 L 270.2 520.0 L 269.3 520.0" pathLength="166.7" stroke-dasharray="166.7" stroke-dashoffset="166.7">
<animate attributeName="stroke-dashoffset" values="166.7;0" dur="14.78s" repeatCount="indefinite" />
</path>
<circle cx="436.0" cy="520.0" r="4" fill="none" stroke="#1d3557" stroke-width="1.4" />
<circle r="5" fill="#1d3557" stroke="#000" stroke-width="0.6">
<animateMotion dur="14.78s" repeatCount="indefinite" rotate="0">
<mpath xlink:href="#p1t1" href="#p1t1" />
</animateMotion>
</circle>
</g>
<g transform="translate(60,680)">
<rect class="panel" width="560" height="560" />
<text class="title" x="10" y="18">FRONT Z x Y</text>
<text class="subtitle" x="10" y="32">Z -&gt; cross (horiz),  Y -&gt; alt (vert)</text>
<line class="grid" x1="60.0" y1="50.0" x2="60.0" y2="520.0" />
<line class="grid" x1="60.0" y1="520.0" x2="530.0" y2="520.0" />
<text class="tick" x="60.0" y="534.0" text-anchor="middle">0</text>
<text class="tick" x="56.0" y="524.0" text-anchor="end">0</text>
<line class="grid" x1="154.0" y1="50.0" x2="154.0" y2="520.0" />
<line class="grid" x1="60.0" y1="426.0" x2="530.0" y2="426.0" />
<text class="tick" x="154.0" y="534.0" text-anchor="middle">1.5k</text>
<text class="tick" x="56.0" y="430.0" text-anchor="end">1.5k</text>
<line class="grid" x1="248.0" y1="50.0" x2="248.0" y2="520.0" />
<line class="grid" x1="60.0" y1="332.0" x2="530.0" y2="332.0" />
<text class="tick" x="248.0" y="534.0" text-anchor="middle">3.0k</text>
<text class="tick" x="56.0" y="336.0" text-anchor="end">3.0k</text>
<line class="grid" x1="342.0" y1="50.0" x2="342.0" y2="520.0" />
<line class="grid" x1="60.0" y1="238.0" x2="530.0" y2="238.0" />
<text class="tick" x="342.0" y="534.0" text-anchor="middle">4.5k</text>
<text class="tick" x="56.0" y="242.0" text-anchor="end">4.5k</text>
<line class="grid" x1="436.0" y1="50.0" x2="436.0" y2="520.0" />
<line class="grid" x1="60.0" y1="144.0" x2="530.0" y2="144.0" />
<text class="tick" x="436.0" y="534.0" text-anchor="middle">6.0k</text>
<text class="tick" x="56.0" y="148.0" text-anchor="end">6.0k</text>
<line class="grid" x1="530.0" y1="50.0" x2="530.0" y2="520.0" />
<line class="grid" x1="60.0" y1="50.0" x2="530.0" y2="50.0" />
<text class="tick" x="530.0" y="534.0" text-anchor="middle">7.5k</text>
<text class="tick" x="56.0" y="54.0" text-anchor="end">7.5k</text>
<line class="axis" x1="60.0" y1="50.0" x2="60.0" y2="520.0" />
<line class="axis" x1="60.0" y1="520.0" x2="530.0" y2="520.0" />
<line class="ground" x1="60.0" y1="520.0" x2="530.0" y2="520.0" />
<path id="p2t0" class="track" stroke="#e63946" d="M 60.0 520.0 L 60.0 520.0 L 60.0 520.0 L 60.0 519.9 L 60.0 519.9 L 60.0 519.8 L 60.0 519.7 L 60.0 519.6 L 60.0 519.5 L 60.0 519.3 L 60.0 519.2 L 60.0 519.0 L 60.0 518.8 L 60.0 518.6 L 60.0 518.4 L 60.0 518.2 L 60.0 517.9 L 60.0 517.7 L 60.0 517.4 L 60.0 517.1 L 60.0 516.8 L 60.0 516.5 L 60.0 516.2 L 60.0 515.8 L 60.0 515.5 L 60.0 515.1 L 60.0 514.7 L 60.0 514.4 L 60.0 514.0 L 60.0 513.5 L 60.0 513.1 L 60.0 512.7 L 60.0 512.2 L 60.0 511.8 L 60.0 511.3 L 60.0 510.8 L 60.0 510.4 L 60.0 509.9 L 60.0 509.4 L 60.0 508.8 L 60.0 508.3 L 60.0 507.8 L 60.0 507.2 L 60.0 506.7 L 60.0 506.1 L 60.0 505.6 L 60.0 505.0 L 60.0 504.4 L 60.0 503.8 L 60.0 503.2 L 60.0 502.6 L 60.0 502.0 L 60.0 501.4 L 60.0 500.8 L 60.0 500.1 L 60.0 499.5 L 60.0 498.8 L 60.0 498.2 L 60.0 497.5 L 60.0 496.9 L 60.0 496.2 L 60.0 495.5 L 60.0 494.8 L 60.0 494.2 L 60.0 493.5 L 60.0 492.8 L 60.0 492.1 L 60.0 491.4 L 60.0 490.6 L 60.0 489.9 L 60.0 489.2 L 60.0 488.5 L 60.0 487.7 L 60.0 487.0 L 60.0 486.3 L 60.0 485.5 L 60.0 484.8 L 60.0 484.0 L 60.0 483.3 L 60.0 482.5 L 60.0 481.8 L 60.0 481.0 L 60.0 480.2 L 60.0 479.5 L 60.0 478.7 L 60.0 477.9 L 60.0 477.1 L 60.0 476.4 L 60.0 475.6 L 60.0 474.8 L 60.0 474.0 L 60.0 473.2 L 60.0 472.4 L 60.0 471.6 L 60.0 470.8 L 60.0 470.0 L 60.0 469.2 L 60.0 468.4 L 60.0 467.6 L 60.0 466.8 L 60.0 466.0 L 60.0 465.2 L 60.0 464.4 L 60.0 463.6 L 60.0 462.7 L 60.0 461.9 L 60.0 461.1 L 60.0 460.3 L 60.0 459.5 L 60.0 458.6 L 60.0 457.8 L 60.0 457.0 L 60.0 456.2 L 60.0 455.3 L 60.0 454.5 L 60.0 453.7 L 60.0 452.8 L 60.0 452.0 L 60.0 451.2 L 60.0 450.4 L 60.0 449.5 L 60.0 448.7 L 60.0 447.9 L 60.0 447.0 L 60.0 446.2 L 60.0 445.4 L 60.0 444.5 L 60.0 443.7 L 60.0 442.8 L 60.0 442.0 L 60.0 441.2 L 60.0 440.3 L 60.0 439.5 L 60.0 438.7 L 60.0 437.8 L 60.0 437.0 L 60.0 436.1 L 60.0 435.3 L 60.0 434.5 L 60.0 433.6 L 60.0 432.8 L 60.0 432.0 L 60.0 431.1 L 60.0 430.3 L 60.0 429.4 L 60.0 428.6 L 60.0 427.8 L 60.0 426.9 L 60.0 426.2" pathLength="93.8" stroke-dasharray="93.8" stroke-dashoffset="93.8">
<animate attributeName="stroke-dashoffset" values="93.8;0" dur="14.78s" repeatCount="indefinite" />
</path>
<circle cx="60.0" cy="520.0" r="4" fill="none" stroke="#e63946" stroke-width="1.4" />
<circle r="5" fill="#e63946" stroke="#000" stroke-width="0.6">
<animateMotion dur="14.78s" repeatCount="indefinite" rotate="0">
<mpath xlink:href="#p2t0" href="#p2t0" />
</animateMotion>
</circle>
<path id="p2t1" class="track" stroke="#1d3557" d="M 60.0 426.0 L 60.0 426.0 L 60.0 426.0 L 60.0 426.0 L 60.0 426.0 L 60.0 426.0 L 60.0 426.0 L 60.0 426.0 L 60.0 426.0 L 60.0 426.0 L 60.0 426.0 L 60.0 426.0 L 60.0 426.0 L 60.0 426.0 L 60.0 426.0 L 60.0 426.0 L 60.0 426.0 L 60.0 426.0 L 60.0 426.0 L 60.0 426.0 L 60.0 426.0 L 60.0 426.0 L 60.0 426.0 L 60.0 426.0 L 60.0 426.0 L 60.0 426.0 L 60.0 426.0 L 60.0 426.0 L 60.0 426.0 L 60.0 426.0 L 60.0 426.0 L 60.0 426.0 L 60.0 426.0 L 60.0 426.0 L 60.0 426.0 L 60.0 426.0 L 60.0 426.0 L 60.0 426.0 L 60.0 426.0 L 60.0 426.0 L 60.0 426.0 L 60.0 426.0 L 60.0 426.0 L 60.0 426.0 L 60.0 426.0 L 60.0 426.0 L 60.0 426.0 L 60.0 426.0 L 60.0 426.0 L 60.0 426.0 L 60.0 426.0 L 60.0 426.0 L 60.0 426.0 L 60.0 426.0 L 60.0 426.0 L 60.0 426.0 L 60.0 426.0 L 60.0 426.0 L 60.0 426.0 L 60.0 426.0 L 60.0 426.0 L 60.0 426.0 L 60.0 426.0 L 60.0 426.0 L 60.0 426.0 L 60.0 426.0 L 60.0 426.0 L 60.0 426.0 L 60.0 426.0 L 60.0 426.0 L 60.0 426.0 L 60.0 426.0 L 60.0 426.0 L 60.0 426.0 L 60.0 426.0 L 60.0 426.0 L 60.0 426.0 L 60.0 426.0 L 60.0 426.0 L 60.0 426.0 L 60.0 426.0 L 60.0 426.0 L 60.0 426.0 L 60.0 426.0 L 60.0 426.0 L 60.0 426.0 L 60.0 426.0 L 60.0 426.0 L 60.0 426.0 L 60.0 426.0 L 60.0 426.0 L 60.0 426.0 L 60.0 426.0 L 60.0 426.0 L 60.0 426.0 L 60.0 426.0 L 60.0 426.0 L 60.0 426.0 L 60.0 426.0 L 60.0 426.0 L 60.0 426.0 L 60.0 426.0 L 60.0 426.0 L 60.0 426.0 L 60.0 426.0 L 60.0 426.0 L 60.0 426.0 L 60.0 426.0 L 60.0 426.0 L 60.0 426.0 L 60.0 426.0 L 60.0 426.0 L 60.0 426.0 L 60.0 426.0 L 60.0 426.0 L 60.0 426.0 L 60.0 426.0 L 60.0 426.0 L 60.0 426.0 L 60.0 426.0 L 60.0 426.0 L 60.0 426.0 L 60.0 426.0 L 60.0 426.0 L 60.0 426.0 L 60.0 426.0 L 60.0 426.0 L 60.0 426.0 L 60.0 426.0 L 60.0 426.0 L 60.0 426.0 L 60.0 426.0 L 60.0 426.0 L 60.0 426.0 L 60.0 426.0 L 60.0 426.0 L 60.0 426.0 L 60.0 426.0 L 60.0 426.0 L 60.0 426.0 L 60.0 426.0 L 60.0 426.0 L 60.0 426.0 L 60.0 426.0 L 60.0 426.0 L 60.0 426.0 L 60.0 426.0 L 60.0 426.0 L 60.0 426.0" pathLength="1.0" stroke-dasharray="1.0" stroke-dashoffset="1.0">
<animate attributeName="stroke-dashoffset" values="1.0;0" dur="14.78s" repeatCount="indefinite" />
</path>
<circle cx="60.0" cy="426.0" r="4" fill="none" stroke="#1d3557" stroke-width="1.4" />
<circle r="5" fill="#1d3557" stroke="#000" stroke-width="0.6">
<animateMotion dur="14.78s" repeatCount="indefinite" rotate="0">
<mpath xlink:href="#p2t1" href="#p2t1" />
</animateMotion>
</circle>
</g>
<g transform="translate(680,680)">
<rect class="panel" width="560" height="560" />
<text class="title" x="20" y="38">baseline — missile (red) vs target (blue)</text>
<text class="summary" x="20" y="70">tracks        : 2</text>
<text class="summary" x="20" y="92">total samples : 298</text>
<text class="summary" x="20" y="114">duration      : 14.78 s</text>
<text class="summary" x="20" y="136"></text>
<text class="summary-dim" x="20" y="158">legend:</text>
<line x1="30" y1="180.0" x2="60" y2="180.0" stroke="#e63946" stroke-width="2.2" />
<circle cx="45" cy="180.0" r="3.5" fill="#e63946" />
<text class="summary-dim" x="70" y="184.0">missile    end (3328, 1496, 0) m  (149 samples)</text>
<line x1="30" y1="202.0" x2="60" y2="202.0" stroke="#1d3557" stroke-width="2.2" />
<circle cx="45" cy="202.0" r="3.5" fill="#1d3557" />
<text class="summary-dim" x="70" y="206.0">target     end (3340, 1500, 0) m  (149 samples)</text>
</g>
</svg>
