<?xml version="1.0" encoding="UTF-8"?>
<svg xmlns="http://www.w3.org/2000/svg" xmlns:xlink="http://www.w3.org/1999/xlink" viewBox="0 0 1300 1300" width="1300" height="1300">
<style>
  .bg { fill: #0c1116; }
.panel { fill: #11161c; stroke: #2a3340; stroke-width: 1; }
.grid { stroke: #1c2430; stroke-width: 1; }
.axis { stroke: #4a5260; stroke-width: 1; }
.ground { stroke: #6b5a26; stroke-width: 1.5; stroke-dasharray: 4 3; }
.tick { fill: #7a8290; font: 11px monospace; }
.title { fill: #d6deea; font: 14px monospace; font-weight: bold; }
.subtitle { fill: #7a8290; font: 11px monospace; }
.summary { fill: #d6deea; font: 13px monospace; }
.summary-dim { fill: #7a8290; font: 12px monospace; }
.track { fill: none; stroke-width: 1.8; }
.start { stroke-width: 1.2; }
.end { stroke-width: 1.0; }
</style>
<rect class="bg" width="1300" height="1300" />
<g transform="translate(60,60)">
<rect class="panel" width="560" height="560" />
<text class="title" x="10" y="18">SIDE  X x Y</text>
<text class="subtitle" x="10" y="32">X -&gt; range (horiz),  Y -&gt; alt (vert)</text>
<line class="grid" x1="60.0" y1="50.0" x2="60.0" y2="520.0" />
<line class="grid" x1="60.0" y1="520.0" x2="530.0" y2="520.0" />
<text class="tick" x="60.0" y="534.0" text-anchor="middle">0</text>
<text class="tick" x="56.0" y="524.0" text-anchor="end">0</text>
<line class="grid" x1="154.0" y1="50.0" x2="154.0" y2="520.0" />
<line class="grid" x1="60.0" y1="426.0" x2="530.0" y2="426.0" />
<text class="tick" x="154.0" y="534.0" text-anchor="middle">1.5k</text>
<text class="tick" x="56.0" y="430.0" text-anchor="end">1.5k</text>
<line class="grid" x1="248.0" y1="50.0" x2="248.0" y2="520.0" />
<line class="grid" x1="60.0" y1="332.0" x2="530.0" y2="332.0" />
<text class="tick" x="248.0" y="534.0" text-anchor="middle">3.0k</text>
<text class="tick" x="56.0" y="336.0" text-anchor="end">3.0k</text>
<line class="grid" x1="342.0" y1="50.0" x2="342.0" y2="520.0" />
<line class="grid" x1="60.0" y1="238.0" x2="530.0" y2="238.0" />
<text class="tick" x="342.0" y="534.0" text-anchor="middle">4.5k</text>
<text class="tick" x="56.0" y="242.0" text-anchor="end">4.5k</text>
<line class="grid" x1="436.0" y1="50.0" x2="436.0" y2="520.0" />
<line class="grid" x1="60.0" y1="144.0" x2="530.0" y2="144.0" />
<text class="tick" x="436.0" y="534.0" text-anchor="middle">6.0k</text>
<text class="tick" x="56.0" y="148.0" text-anchor="end">6.0k</text>
<line class="grid" x1="530.0" y1="50.0" x2="530.0" y2="520.0" />
<line class="grid" x1="60.0" y1="50.0" x2="530.0" y2="50.0" />
<text class="tick" x="530.0" y="534.0" text-anchor="middle">7.5k</text>
<text class="tick" x="56.0" y="54.0" text-anchor="end">7.5k</text>
<line class="axis" x1="60.0" y1="50.0" x2="60.0" y2="520.0" />
<line class="axis" x1="60.0" y1="520.0" x2="530.0" y2="520.0" />
<line class="ground" x1="60.0" y1="520.0" x2="530.0" y2="520.0" />
<path id="p0t0" class="track" stroke="#e63946" d="M 60.0 520.0 L 61.8 520.0 L 63.5 520.0 L 65.3 520.0 L 67.0 519.9 L 68.8 519.9 L 70.5 519.9 L 72.3 519.8 L 74.0 519.8 L 75.7 519.7 L 77.5 519.7 L 79.2 519.6 L 80.9 519.5 L 82.7 519.4 L 84.4 519.3 L 86.1 519.2 L 87.8 519.1 L 89.5 519.0 L 91.2 518.9 L 92.9 518.8 L 94.6 518.7 L 96.3 518.6 L 98.0 518.4 L 99.7 518.3 L 101.3 518.2 L 103.0 518.0 L 104.6 517.9 L 106.3 517.7 L 107.9 517.6 L 109.6 517.4 L 111.2 517.3 L 112.8 517.1 L 114.4 516.9 L 116.0 516.7 L 117.6 516.6 L 119.2 516.4 L 120.8 516.2 L 122.4 516.0 L 124.0 515.8 L 125.5 515.6 L 127.1 515.4 L 128.6 515.2 L 130.2 515.0 L 131.7 514.8 L 133.3 514.6 L 134.8 514.4 L 136.3 514.2 L 137.8 514.0 L 139.3 513.8 L 140.8 513.6 L 142.3 513.3 L 143.8 513.1 L 145.3 512.9 L 146.7 512.7 L 148.2 512.4 L 149.7 512.2 L 151.1 512.0 L 152.5 511.8 L 154.0 511.5 L 155.4 511.3 L 156.8 511.0 L 158.2 510.8 L 159.7 510.6 L 161.1 510.3 L 162.4 510.1 L 163.8 509.8 L 165.2 509.6 L 166.6 509.3 L 168.0 509.1 L 169.3 508.8 L 170.7 508.6 L 172.0 508.3 L 173.4 508.1 L 174.7 507.8 L 176.1 507.6 L 177.4 507.3 L 178.7 507.1 L 180.0 506.8 L 181.3 506.6 L 182.6 506.3 L 183.9 506.1 L 185.2 505.8 L 186.5 505.5 L 187.8 505.3 L 189.1 505.0 L 190.3 504.8 L 191.6 504.5 L 192.9 504.2 L 194.1 504.0 L 195.4 503.7 L 196.6 503.4 L 197.8 503.2 L 199.1 502.9 L 200.3 502.7 L 201.5 502.4 L 202.7 502.1 L 203.9 501.9 L 205.2 501.6 L 206.4 501.3 L 207.6 501.1 L 208.7 500.8 L 209.9 500.5 L 211.1 500.3 L 212.3 500.0 L 213.5 499.7 L 214.6 499.5 L 215.8 499.2 L 216.9 499.0 L 218.1 498.7 L 219.2 498.4 L 220.4 498.2 L 221.5 497.9 L 222.7 497.6 L 223.8 497.4 L 224.9 497.1 L 226.0 496.8 L 227.1 496.6 L 228.3 496.3 L 229.4 496.0 L 230.5 495.8 L 231.6 495.5 L 232.7 495.2 L 233.8 495.0 L 234.8 494.7 L 235.9 494.4 L 237.0 494.2 L 238.1 493.9 L 239.1 493.7 L 240.2 493.4 L 241.3 493.1 L 242.3 492.9 L 243.4 492.6 L 244.4 492.3 L 245.5 492.1 L 246.5 491.8 L 247.6 491.6 L 248.6 491.3 L 249.6 491.0 L 250.7 490.8 L 251.7 490.5 L 252.7 490.3 L 253.7 490.0 L 254.7 489.8 L 255.7 489.5 L 256.7 489.2 L 257.7 489.0 L 258.7 488.7 L 259.7 488.5 L 260.7 488.2 L 261.7 488.0 L 262.7 487.7 L 263.7 487.4 L 264.7 487.2 L 265.6 486.9 L 266.6 486.7 L 267.6 486.4 L 268.5 486.2 L 269.5 485.9 L 270.5 485.7 L 271.4 485.4 L 272.4 485.2 L 273.3 484.9 L 274.3 484.7 L 275.2 484.4 L 276.1 484.2 L 277.1 483.9 L 278.0 483.7 L 278.9 483.4 L 279.9 483.2 L 280.8 482.9 L 281.7 482.7 L 282.6 482.4 L 283.6 482.2 L 284.5 481.9 L 285.4 481.7 L 286.3 481.5 L 287.2 481.2 L 288.1 481.0 L 289.0 480.7 L 289.9 480.5 L 290.8 480.2 L 291.7 480.0 L 292.6 479.8 L 293.4 479.5 L 294.3 479.3 L 295.2 479.0 L 296.1 478.8 L 297.0 478.6 L 297.8 478.3 L 298.7 478.1 L 299.6 477.9 L 300.4 477.6 L 301.3 477.4 L 302.2 477.1 L 303.0 476.9 L 303.9 476.7 L 304.7 476.4 L 305.6 476.2 L 306.4 476.0 L 307.3 475.7 L 308.1 475.5 L 308.9 475.3 L 309.8 475.0 L 310.6 474.8 L 311.5 474.6 L 312.3 474.4 L 313.1 474.1 L 313.9 473.9 L 314.8 473.7 L 315.6 473.4 L 316.4 473.2 L 317.2 473.0 L 318.0 472.8 L 318.9 472.5 L 319.7 472.3 L 320.5 472.1 L 321.3 471.9 L 322.1 471.6 L 322.9 471.4 L 323.7 471.2 L 324.5 471.0 L 325.3 470.8 L 326.1 470.5 L 326.9 470.3 L 327.7 470.1 L 328.5 469.9 L 329.3 469.7 L 330.0 469.4 L 330.8 469.2 L 331.6 469.0 L 332.4 468.8 L 333.2 468.6 L 333.9 468.3 L 334.7 468.1 L 335.5 467.9 L 336.3 467.7 L 337.0 467.5 L 337.8 467.3 L 338.6 467.1 L 339.3 466.8 L 340.1 466.6 L 340.9 466.4 L 341.6 466.2 L 342.4 466.0 L 343.1 465.8 L 343.9 465.6 L 344.6 465.4 L 345.4 465.2 L 346.1 464.9 L 346.9 464.7 L 347.6 464.5 L 348.4 464.3 L 349.1 464.1 L 349.9 463.9 L 350.6 463.7 L 351.3 463.5 L 352.1 463.3 L 352.8 463.1 L 353.6 462.9 L 354.3 462.7 L 355.0 462.5 L 355.7 462.3 L 356.5 462.1 L 357.2 461.8 L 357.9 461.6 L 358.7 461.4 L 359.4 461.2 L 360.1 461.0 L 360.8 460.8 L 361.6 460.6 L 362.3 460.4 L 363.0 460.2 L 363.7 460.0 L 364.4 459.8 L 365.2 459.6 L 365.9 459.4 L 366.6 459.2 L 367.3 459.0 L 368.0 458.8 L 368.7 458.6 L 369.4 458.4 L 370.1 458.2 L 370.9 458.0 L 371.6 457.8 L 372.3 457.6 L 372.5 457.6" pathLength="319.7" stroke-dasharray="319.7" stroke-dashoffset="319.7">
<animate attributeName="stroke-dashoffset" values="319.7;0" dur="28.44s" repeatCount="indefinite" />
</path>
<circle cx="60.0" cy="520.0" r="4" fill="none" stroke="#e63946" stroke-width="1.4" />
<circle r="5" fill="#e63946" stroke="#000" stroke-width="0.6">
<animateMotion dur="28.44s" repeatCount="indefinite" rotate="0">
<mpath xlink:href="#p0t0" href="#p0t0" />
</animateMotion>
</circle>
<path id="p0t1" class="track" stroke="#1d3557" d="M 373.3 457.3 L 373.3 457.3 L 373.3 457.3 L 373.3 457.3 L 373.3 457.3 L 373.3 457.3 L 373.3 457.3 L 373.3 457.3 L 373.3 457.3 L 373.3 457.3 L 373.3 457.3 L 373.3 457.3 L 373.3 457.3 L 373.3 457.3 L 373.3 457.3 L 373.3 457.3 L 373.3 457.3 L 373.3 457.3 L 373.3 457.3 L 373.3 457.3 L 373.3 457.3 L 373.3 457.3 L 373.3 457.3 L 373.3 457.3 L 373.3 457.3 L 373.3 457.3 L 373.3 457.3 L 373.3 457.3 L 373.3 457.3 L 373.3 457.3 L 373.3 457.3 L 373.3 457.3 L 373.3 457.3 L 373.3 457.3 L 373.3 457.3 L 373.3 457.3 L 373.3 457.3 L 373.3 457.3 L 373.3 457.3 L 373.3 457.3 L 373.3 457.3 L 373.3 457.3 L 373.3 457.3 L 373.3 457.3 L 373.3 457.3 L 373.3 457.3 L 373.3 457.3 L 373.3 457.3 L 373.3 457.3 L 373.3 457.3 L 373.3 457.3 L 373.3 457.3 L 373.3 457.3 L 373.3 457.3 L 373.3 457.3 L 373.3 457.3 L 373.3 457.3 L 373.3 457.3 L 373.3 457.3 L 373.3 457.3 L 373.3 457.3 L 373.3 457.3 L 373.3 457.3 L 373.3 457.3 L 373.3 457.3 L 373.3 457.3 L 373.3 457.3 L 373.3 457.3 L 373.3 457.3 L 373.3 457.3 L 373.3 457.3 L 373.3 457.3 L 373.3 457.3 L 373.3 457.3 L 373.3 457.3 L 373.3 457.3 L 373.3 457.3 L 373.3 457.3 L 373.3 457.3 L 373.3 457.3 L 373.3 457.3 L 373.3 457.3 L 373.3 457.3 L 373.3 457.3 L 373.3 457.3 L 373.3 457.3 L 373.3 457.3 L 373.3 457.3 L 373.3 457.3 L 373.3 457.3 L 373.3 457.3 L 373.3 457.3 L 373.3 457.3 L 373.3 457.3 L 373.3 457.3 L 373.3 457.3 L 373.3 457.3 L 373.3 457.3 L 373.3 457.3 L 373.3 457.3 L 373.3 457.3 L 373.3 457.3 L 373.3 457.3 L 373.3 457.3 L 373.3 457.3 L 373.3 457.3 L 373.3 457.3 L 373.3 457.3 L 373.3 457.3 L 373.3 457.3 L 373.3 457.3 L 373.3 457.3 L 373.3 457.3 L 373.3 457.3 L 373.3 457.3 L 373.3 457.3 L 373.3 457.3 L 373.3 457.3 L 373.3 457.3 L 373.3 457.3 L 373.3 457.3 L 373.3 457.3 L 373.3 457.3 L 373.3 457.3 L 373.3 457.3 L 373.3 457.3 L 373.3 457.3 L 373.3 457.3 L 373.3 457.3 L 373.3 457.3 L 373.3 457.3 L 373.3 457.3 L 373.3 457.3 L 373.3 457.3 L 373.3 457.3 L 373.3 457.3 L 373.3 457.3 L 373.3 457.3 L 373.3 457.3 L 373.3 457.3 L 373.3 457.3 L 373.3 457.3 L 373.3 457.3 L 373.3 457.3 L 373.3 457.3 L 373.3 457.3 L 373.3 457.3 L 373.3 457.3 L 373.3 457.3 L 373.3 457.3 L 373.3 457.3 L 373.3 457.3 L 373.3 457.3 L 373.3 457.3 L 373.3 457.3 L 373.3 457.3 L 373.3 457.3 L 373.3 457.3 L 373.3 457.3 L 373.3 457.3 L 373.3 457.3 L 373.3 457.3 L 373.3 457.3 L 373.3 457.3 L 373.3 457.3 L 373.3 457.3 L 373.3 457.3 L 373.3 457.3 L 373.3 457.3 L 373.3 457.3 L 373.3 457.3 L 373.3 457.3 L 373.3 457.3 L 373.3 457.3 L 373.3 457.3 L 373.3 457.3 L 373.3 457.3 L 373.3 457.3 L 373.3 457.3 L 373.3 457.3 L 373.3 457.3 L 373.3 457.3 L 373.3 457.3 L 373.3 457.3 L 373.3 457.3 L 373.3 457.3 L 373.3 457.3 L 373.3 457.3 L 373.3 457.3 L 373.3 457.3 L 373.3 457.3 L 373.3 457.3 L 373.3 457.3 L 373.3 457.3 L 373.3 457.3 L 373.3 457.3 L 373.3 457.3 L 373.3 457.3 L 373.3 457.3 L 373.3 457.3 L 373.3 457.3 L 373.3 457.3 L 373.3 457.3 L 373.3 457.3 L 373.3 457.3 L 373.3 457.3 L 373.3 457.3 L 373.3 457.3 L 373.3 457.3 L 373.3 457.3 L 373.3 457.3 L 373.3 457.3 L 373.3 457.3 L 373.3 457.3 L 373.3 457.3 L 373.3 457.3 L 373.3 457.3 L 373.3 457.3 L 373.3 457.3 L 373.3 457.3 L 373.3 457.3 L 373.3 457.3 L 373.3 457.3 L 373.3 457.3 L 373.3 457.3 L 373.3 457.3 L 373.3 457.3 L 373.3 457.3 L 373.3 457.3 L 373.3 457.3 L 373.3 457.3 L 373.3 457.3 L 373.3 457.3 L 373.3 457.3 L 373.3 457.3 L 373.3 457.3 L 373.3 457.3 L 373.3 457.3 L 373.3 457.3 L 373.3 457.3 L 373.3 457.3 L 373.3 457.3 L 373.3 457.3 L 373.3 457.3 L 373.3 457.3 L 373.3 457.3 L 373.3 457.3 L 373.3 457.3 L 373.3 457.3 L 373.3 457.3 L 373.3 457.3 L 373.3 457.3 L 373.3 457.3 L 373.3 457.3 L 373.3 457.3 L 373.3 457.3 L 373.3 457.3 L 373.3 457.3 L 373.3 457.3 L 373.3 457.3 L 373.3 457.3 L 373.3 457.3 L 373.3 457.3 L 373.3 457.3 L 373.3 457.3 L 373.3 457.3 L 373.3 457.3 L 373.3 457.3 L 373.3 457.3 L 373.3 457.3 L 373.3 457.3 L 373.3 457.3 L 373.3 457.3 L 373.3 457.3 L 373.3 457.3 L 373.3 457.3 L 373.3 457.3 L 373.3 457.3 L 373.3 457.3 L 373.3 457.3 L 373.3 457.3 L 373.3 457.3 L 373.3 457.3 L 373.3 457.3 L 373.3 457.3 L 373.3 457.3" pathLength="1.0" stroke-dasharray="1.0" stroke-dashoffset="1.0">
<animate attributeName="stroke-dashoffset" values="1.0;0" dur="28.44s" repeatCount="indefinite" />
</path>
<circle cx="373.3" cy="457.3" r="4" fill="none" stroke="#1d3557" stroke-width="1.4" />
<circle r="5" fill="#1d3557" stroke="#000" stroke-width="0.6">
<animateMotion dur="28.44s" repeatCount="indefinite" rotate="0">
<mpath xlink:href="#p0t1" href="#p0t1" />
</animateMotion>
</circle>
</g>
<g transform="translate(680,60)">
<rect class="panel" width="560" height="560" />
<text class="title" x="10" y="18">TOP   X x Z</text>
<text class="subtitle" x="10" y="32">X -&gt; range (horiz),  Z -&gt; cross (vert)</text>
<line class="grid" x1="60.0" y1="50.0" x2="60.0" y2="520.0" />
<line class="grid" x1="60.0" y1="520.0" x2="530.0" y2="520.0" />
<text class="tick" x="60.0" y="534.0" text-anchor="middle">0</text>
<text class="tick" x="56.0" y="524.0" text-anchor="end">0</text>
<line class="grid" x1="154.0" y1="50.0" x2="154.0" y2="520.0" />
<line class="grid" x1="60.0" y1="426.0" x2="530.0" y2="426.0" />
<text class="tick" x="154.0" y="534.0" text-anchor="middle">1.5k</text>
<text class="tick" x="56.0" y="430.0" text-anchor="end">1.5k</text>
<line class="grid" x1="248.0" y1="50.0" x2="248.0" y2="520.0" />
<line class="grid" x1="60.0" y1="332.0" x2="530.0" y2="332.0" />
<text class="tick" x="248.0" y="534.0" text-anchor="middle">3.0k</text>
<text class="tick" x="56.0" y="336.0" text-anchor="end">3.0k</text>
<line class="grid" x1="342.0" y1="50.0" x2="342.0" y2="520.0" />
<line class="grid" x1="60.0" y1="238.0" x2="530.0" y2="238.0" />
<text class="tick" x="342.0" y="534.0" text-anchor="middle">4.5k</text>
<text class="tick" x="56.0" y="242.0" text-anchor="end">4.5k</text>
<line class="grid" x1="436.0" y1="50.0" x2="436.0" y2="520.0" />
<line class="grid" x1="60.0" y1="144.0" x2="530.0" y2="144.0" />
<text class="tick" x="436.0" y="534.0" text-anchor="middle">6.0k</text>
<text class="tick" x="56.0" y="148.0" text-anchor="end">6.0k</text>
<line class="grid" x1="530.0" y1="50.0" x2="530.0" y2="520.0" />
<line class="grid" x1="60.0" y1="50.0" x2="530.0" y2="50.0" />
<text class="tick" x="530.0" y="534.0" text-anchor="middle">7.5k</text>
<text class="tick" x="56.0" y="54.0" text-anchor="end">7.5k</text>
<line class="axis" x1="60.0" y1="50.0" x2="60.0" y2="520.0" />
<line class="axis" x1="60.0" y1="520.0" x2="530.0" y2="520.0" />
<path id="p1t0" class="track" stroke="#e63946" d="M 60.0 520.0 L 61.8 520.0 L 63.5 519.9 L 65.3 519.9 L 67.0 519.8 L 68.8 519.7 L 70.5 519.5 L 72.3 519.4 L 74.0 519.2 L 75.7 518.9 L 77.5 518.7 L 79.2 518.4 L 80.9 518.2 L 82.7 517.8 L 84.4 517.5 L 86.1 517.2 L 87.8 516.8 L 89.5 516.4 L 91.2 516.0 L 92.9 515.5 L 94.6 515.1 L 96.3 514.6 L 98.0 514.1 L 99.7 513.6 L 101.3 513.1 L 103.0 512.5 L 104.6 511.9 L 106.3 511.4 L 107.9 510.8 L 109.6 510.1 L 111.2 509.5 L 112.8 508.8 L 114.4 508.2 L 116.0 507.5 L 117.6 506.8 L 119.2 506.1 L 120.8 505.4 L 122.4 504.6 L 124.0 503.9 L 125.5 503.1 L 127.1 502.3 L 128.6 501.5 L 130.2 500.7 L 131.7 499.9 L 133.3 499.1 L 134.8 498.2 L 136.3 497.3 L 137.8 496.5 L 139.3 495.6 L 140.8 494.7 L 142.3 493.8 L 143.8 492.9 L 145.3 492.0 L 146.7 491.0 L 148.2 490.1 L 149.7 489.1 L 151.1 488.2 L 152.5 487.2 L 154.0 486.2 L 155.4 485.2 L 156.8 484.2 L 158.2 483.2 L 159.7 482.2 L 161.1 481.2 L 162.4 480.1 L 163.8 479.1 L 165.2 478.0 L 166.6 477.0 L 168.0 475.9 L 169.3 474.8 L 170.7 473.7 L 172.0 472.6 L 173.4 471.5 L 174.7 470.4 L 176.1 469.3 L 177.4 468.2 L 178.7 467.1 L 180.0 465.9 L 181.3 464.8 L 182.6 463.6 L 183.9 462.5 L 185.2 461.3 L 186.5 460.2 L 187.8 459.0 L 189.1 457.8 L 190.3 456.6 L 191.6 455.4 L 192.9 454.2 L 194.1 453.0 L 195.4 451.8 L 196.6 450.6 L 197.8 449.4 L 199.1 448.2 L 200.3 446.9 L 201.5 445.7 L 202.7 444.5 L 203.9 443.2 L 205.2 442.0 L 206.4 440.7 L 207.6 439.5 L 208.7 438.2 L 209.9 436.9 L 211.1 435.7 L 212.3 434.4 L 213.5 433.1 L 214.6 431.8 L 215.8 430.5 L 216.9 429.2 L 218.1 427.9 L 219.2 426.6 L 220.4 425.3 L 221.5 424.0 L 222.7 422.7 L 223.8 421.4 L 224.9 420.1 L 226.0 418.7 L 227.1 417.4 L 228.3 416.1 L 229.4 414.7 L 230.5 413.4 L 231.6 412.0 L 232.7 410.7 L 233.8 409.3 L 234.8 408.0 L 235.9 406.6 L 237.0 405.3 L 238.1 403.9 L 239.1 402.5 L 240.2 401.2 L 241.3 399.8 L 242.3 398.4 L 243.4 397.0 L 244.4 395.7 L 245.5 394.3 L 246.5 392.9 L 247.6 391.5 L 248.6 390.1 L 249.6 388.7 L 250.7 387.3 L 251.7 385.9 L 252.7 384.5 L 253.7 383.1 L 254.7 381.7 L 255.7 380.2 L 256.7 378.8 L 257.7 377.4 L 258.7 376.0 L 259.7 374.6 L 260.7 373.1 L 261.7 371.7 L 262.7 370.3 L 263.7 368.8 L 264.7 367.4 L 265.6 366.0 L 266.6 364.5 L 267.6 363.1 L 268.5 361.6 L 269.5 360.2 L 270.5 358.7 L 271.4 357.3 L 272.4 355.8 L 273.3 354.4 L 274.3 352.9 L 275.2 351.5 L 276.1 350.0 L 277.1 348.5 L 278.0 347.1 L 278.9 345.6 L 279.9 344.1 L 280.8 342.7 L 281.7 341.2 L 282.6 339.7 L 283.6 338.2 L 284.5 336.7 L 285.4 335.3 L 286.3 333.8 L 287.2 332.3 L 288.1 330.8 L 289.0 329.3 L 289.9 327.8 L 290.8 326.3 L 291.7 324.8 L 292.6 323.3 L 293.4 321.9 L 294.3 320.4 L 295.2 318.9 L 296.1 317.3 L 297.0 315.8 L 297.8 314.3 L 298.7 312.8 L 299.6 311.3 L 300.4 309.8 L 301.3 308.3 L 302.2 306.8 L 303.0 305.3 L 303.9 303.8 L 304.7 302.2 L 305.6 300.7 L 306.4 299.2 L 307.3 297.7 L 308.1 296.2 L 308.9 294.6 L 309.8 293.1 L 310.6 291.6 L 311.5 290.1 L 312.3 288.5 L 313.1 287.0 L 313.9 285.5 L 314.8 283.9 L 315.6 282.4 L 316.4 280.9 L 317.2 279.3 L 318.0 277.8 L 318.9 276.2 L 319.7 274.7 L 320.5 273.2 L 321.3 271.6 L 322.1 270.1 L 322.9 268.5 L 323.7 267.0 L 324.5 265.4 L 325.3 263.9 L 326.1 262.3 L 326.9 260.8 L 327.7 259.2 L 328.5 257.7 L 329.3 256.1 L 330.0 254.6 L 330.8 253.0 L 331.6 251.4 L 332.4 249.9 L 333.2 248.3 L 333.9 246.8 L 334.7 245.2 L 335.5 243.6 L 336.3 242.1 L 337.0 240.5 L 337.8 239.0 L 338.6 237.4 L 339.3 235.8 L 340.1 234.3 L 340.9 232.7 L 341.6 231.1 L 342.4 229.5 L 343.1 228.0 L 343.9 226.4 L 344.6 224.8 L 345.4 223.3 L 346.1 221.7 L 346.9 220.1 L 347.6 218.5 L 348.4 217.0 L 349.1 215.4 L 349.9 213.8 L 350.6 212.2 L 351.3 210.6 L 352.1 209.1 L 352.8 207.5 L 353.6 205.9 L 354.3 204.3 L 355.0 202.7 L 355.7 201.2 L 356.5 199.6 L 357.2 198.0 L 357.9 196.4 L 358.7 194.8 L 359.4 193.2 L 360.1 191.6 L 360.8 190.0 L 361.6 188.5 L 362.3 186.9 L 363.0 185.3 L 363.7 183.7 L 364.4 182.1 L 365.2 180.5 L 365.9 178.9 L 366.6 177.3 L 367.3 175.7 L 368.0 174.1 L 368.7 172.6 L 369.4 171.0 L 370.1 169.4 L 370.9 167.8 L 371.6 166.2 L 372.3 164.6 L 372.5 163.9" pathLength="495.3" stroke-dasharray="495.3" stroke-dashoffset="495.3">
<animate attributeName="stroke-dashoffset" values="495.3;0" dur="28.44s" repeatCount="indefinite" />
</path>
<circle cx="60.0" cy="520.0" r="4" fill="none" stroke="#e63946" stroke-width="1.4" />
<circle r="5" fill="#e63946" stroke="#000" stroke-width="0.6">
<animateMotion dur="28.44s" repeatCount="indefinite" rotate="0">
<mpath xlink:href="#p1t0" href="#p1t0" />
</animateMotion>
</circle>
<path id="p1t1" class="track" stroke="#1d3557" d="M 373.3 520.0 L 373.3 518.7 L 373.3 517.5 L 373.3 516.2 L 373.3 515.0 L 373.3 513.7 L 373.3 512.5 L 373.3 511.2 L 373.3 510.0 L 373.3 508.7 L 373.3 507.5 L 373.3 506.2 L 373.3 505.0 L 373.3 503.7 L 373.3 502.5 L 373.3 501.2 L 373.3 499.9 L 373.3 498.7 L 373.3 497.4 L 373.3 496.2 L 373.3 494.9 L 373.3 493.7 L 373.3 492.4 L 373.3 491.2 L 373.3 489.9 L 373.3 488.7 L 373.3 487.4 L 373.3 486.2 L 373.3 484.9 L 373.3 483.7 L 373.3 482.4 L 373.3 481.1 L 373.3 479.9 L 373.3 478.6 L 373.3 477.4 L 373.3 476.1 L 373.3 474.9 L 373.3 473.6 L 373.3 472.4 L 373.3 471.1 L 373.3 469.9 L 373.3 468.6 L 373.3 467.4 L 373.3 466.1 L 373.3 464.9 L 373.3 463.6 L 373.3 462.3 L 373.3 461.1 L 373.3 459.8 L 373.3 458.6 L 373.3 457.3 L 373.3 456.1 L 373.3 454.8 L 373.3 453.6 L 373.3 452.3 L 373.3 451.1 L 373.3 449.8 L 373.3 448.6 L 373.3 447.3 L 373.3 446.1 L 373.3 444.8 L 373.3 443.5 L 373.3 442.3 L 373.3 441.0 L 373.3 439.8 L 373.3 438.5 L 373.3 437.3 L 373.3 436.0 L 373.3 434.8 L 373.3 433.5 L 373.3 432.3 L 373.3 431.0 L 373.3 429.8 L 373.3 428.5 L 373.3 427.3 L 373.3 426.0 L 373.3 424.7 L 373.3 423.5 L 373.3 422.2 L 373.3 421.0 L 373.3 419.7 L 373.3 418.5 L 373.3 417.2 L 373.3 416.0 L 373.3 414.7 L 373.3 413.5 L 373.3 412.2 L 373.3 411.0 L 373.3 409.7 L 373.3 408.5 L 373.3 407.2 L 373.3 405.9 L 373.3 404.7 L 373.3 403.4 L 373.3 402.2 L 373.3 400.9 L 373.3 399.7 L 373.3 398.4 L 373.3 397.2 L 373.3 395.9 L 373.3 394.7 L 373.3 393.4 L 373.3 392.2 L 373.3 390.9 L 373.3 389.7 L 373.3 388.4 L 373.3 387.1 L 373.3 385.9 L 373.3 384.6 L 373.3 383.4 L 373.3 382.1 L 373.3 380.9 L 373.3 379.6 L 373.3 378.4 L 373.3 377.1 L 373.3 375.9 L 373.3 374.6 L 373.3 373.4 L 373.3 372.1 L 373.3 370.9 L 373.3 369.6 L 373.3 368.3 L 373.3 367.1 L 373.3 365.8 L 373.3 364.6 L 373.3 363.3 L 373.3 362.1 L 373.3 360.8 L 373.3 359.6 L 373.3 358.3 L 373.3 357.1 L 373.3 355.8 L 373.3 354.6 L 373.3 353.3 L 373.3 352.1 L 373.3 350.8 L 373.3 349.5 L 373.3 348.3 L 373.3 347.0 L 373.3 345.8 L 373.3 344.5 L 373.3 343.3 L 373.3 342.0 L 373.3 340.8 L 373.3 339.5 L 373.3 338.3 L 373.3 337.0 L 373.3 335.8 L 373.3 334.5 L 373.3 333.3 L 373.3 332.0 L 373.3 330.7 L 373.3 329.5 L 373.3 328.2 L 373.3 327.0 L 373.3 325.7 L 373.3 324.5 L 373.3 323.2 L 373.3 322.0 L 373.3 320.7 L 373.3 319.5 L 373.3 318.2 L 373.3 317.0 L 373.3 315.7 L 373.3 314.5 L 373.3 313.2 L 373.3 311.9 L 373.3 310.7 L 373.3 309.4 L 373.3 308.2 L 373.3 306.9 L 373.3 305.7 L 373.3 304.4 L 373.3 303.2 L 373.3 301.9 L 373.3 300.7 L 373.3 299.4 L 373.3 298.2 L 373.3 296.9 L 373.3 295.7 L 373.3 294.4 L 373.3 293.1 L 373.3 291.9 L 373.3 290.6 L 373.3 289.4 L 373.3 288.1 L 373.3 286.9 L 373.3 285.6 L 373.3 284.4 L 373.3 283.1 L 373.3 281.9 L 373.3 280.6 L 373.3 279.4 L 373.3 278.1 L 373.3 276.9 L 373.3 275.6 L 373.3 274.3 L 373.3 273.1 L 373.3 271.8 L 373.3 270.6 L 373.3 269.3 L 373.3 268.1 L 373.3 266.8 L 373.3 265.6 L 373.3 264.3 L 373.3 263.1 L 373.3 261.8 L 373.3 260.6 L 373.3 259.3 L 373.3 258.1 L 373.3 256.8 L 373.3 255.5 L 373.3 254.3 L 373.3 253.0 L 373.3 251.8 L 373.3 250.5 L 373.3 249.3 L 373.3 248.0 L 373.3 246.8 L 373.3 245.5 L 373.3 244.3 L 373.3 243.0 L 373.3 241.8 L 373.3 240.5 L 373.3 239.3 L 373.3 238.0 L 373.3 236.7 L 373.3 235.5 L 373.3 234.2 L 373.3 233.0 L 373.3 231.7 L 373.3 230.5 L 373.3 229.2 L 373.3 228.0 L 373.3 226.7 L 373.3 225.5 L 373.3 224.2 L 373.3 223.0 L 373.3 221.7 L 373.3 220.5 L 373.3 219.2 L 373.3 217.9 L 373.3 216.7 L 373.3 215.4 L 373.3 214.2 L 373.3 212.9 L 373.3 211.7 L 373.3 210.4 L 373.3 209.2 L 373.3 207.9 L 373.3 206.7 L 373.3 205.4 L 373.3 204.2 L 373.3 202.9 L 373.3 201.7 L 373.3 200.4 L 373.3 199.1 L 373.3 197.9 L 373.3 196.6 L 373.3 195.4 L 373.3 194.1 L 373.3 192.9 L 373.3 191.6 L 373.3 190.4 L 373.3 189.1 L 373.3 187.9 L 373.3 186.6 L 373.3 185.4 L 373.3 184.1 L 373.3 182.9 L 373.3 181.6 L 373.3 180.3 L 373.3 179.1 L 373.3 177.8 L 373.3 176.6 L 373.3 175.3 L 373.3 174.1 L 373.3 172.8 L 373.3 171.6 L 373.3 170.3 L 373.3 169.1 L 373.3 167.8 L 373.3 166.6 L 373.3 165.3 L 373.3 164.1 L 373.3 163.6" pathLength="356.4" stroke-dasharray="356.4" stroke-dashoffset="356.4">
<animate attributeName="stroke-dashoffset" values="356.4;0" dur="28.44s" repeatCount="indefinite" />
</path>
<circle cx="373.3" cy="520.0" r="4" fill="none" stroke="#1d3557" stroke-width="1.4" />
<circle r="5" fill="#1d3557" stroke="#000" stroke-width="0.6">
<animateMotion dur="28.44s" repeatCount="indefinite" rotate="0">
<mpath xlink:href="#p1t1" href="#p1t1" />
</animateMotion>
</circle>
</g>
<g transform="translate(60,680)">
<rect class="panel" width="560" height="560" />
<text class="title" x="10" y="18">FRONT Z x Y</text>
<text class="subtitle" x="10" y="32">Z -&gt; cross (horiz),  Y -&gt; alt (vert)</text>
<line class="grid" x1="60.0" y1="50.0" x2="60.0" y2="520.0" />
<line class="grid" x1="60.0" y1="520.0" x2="530.0" y2="520.0" />
<text class="tick" x="60.0" y="534.0" text-anchor="middle">0</text>
<text class="tick" x="56.0" y="524.0" text-anchor="end">0</text>
<line class="grid" x1="154.0" y1="50.0" x2="154.0" y2="520.0" />
<line class="grid" x1="60.0" y1="426.0" x2="530.0" y2="426.0" />
<text class="tick" x="154.0" y="534.0" text-anchor="middle">1.5k</text>
<text class="tick" x="56.0" y="430.0" text-anchor="end">1.5k</text>
<line class="grid" x1="248.0" y1="50.0" x2="248.0" y2="520.0" />
<line class="grid" x1="60.0" y1="332.0" x2="530.0" y2="332.0" />
<text class="tick" x="248.0" y="534.0" text-anchor="middle">3.0k</text>
<text class="tick" x="56.0" y="336.0" text-anchor="end">3.0k</text>
<line class="grid" x1="342.0" y1="50.0" x2="342.0" y2="520.0" />
<line class="grid" x1="60.0" y1="238.0" x2="530.0" y2="238.0" />
<text class="tick" x="342.0" y="534.0" text-anchor="middle">4.5k</text>
<text class="tick" x="56.0" y="242.0" text-anchor="end">4.5k</text>
<line class="grid" x1="436.0" y1="50.0" x2="436.0" y2="520.0" />
<line class="grid" x1="60.0" y1="144.0" x2="530.0" y2="144.0" />
<text class="tick" x="436.0" y="534.0" text-anchor="middle">6.0k</text>
<text class="tick" x="56.0" y="148.0" text-anchor="end">6.0k</text>
<line class="grid" x1="530.0" y1="50.0" x2="530.0" y2="520.0" />
<line class="grid" x1="60.0" y1="50.0" x2="530.0" y2="50.0" />
<text class="tick" x="530.0" y="534.0" text-anchor="middle">7.5k</text>
<text class="tick" x="56.0" y="54.0" text-anchor="end">7.5k</text>
<line class="axis" x1="60.0" y1="50.0" x2="60.0" y2="520.0" />
<line class="axis" x1="60.0" y1="520.0" x2="530.0" y2="520.0" />
<line class="ground" x1="60.0" y1="520.0" x2="530.0" y2="520.0" />
<path id="p2t0" class="track" stroke="#e63946" d="M 60.0 520.0 L 60.0 520.0 L 60.1 520.0 L 60.1 520.0 L 60.2 519.9 L 60.3 519.9 L 60.5 519.9 L 60.6 519.8 L 60.8 519.8 L 61.1 519.7 L 61.3 519.7 L 61.6 519.6 L 61.8 519.5 L 62.2 519.4 L 62.5 519.3 L 62.8 519.2 L 63.2 519.1 L 63.6 519.0 L 64.0 518.9 L 64.5 518.8 L 64.9 518.7 L 65.4 518.6 L 65.9 518.4 L 66.4 518.3 L 66.9 518.2 L 67.5 518.0 L 68.1 517.9 L 68.6 517.7 L 69.2 517.6 L 69.9 517.4 L 70.5 517.3 L 71.2 517.1 L 71.8 516.9 L 72.5 516.7 L 73.2 516.6 L 73.9 516.4 L 74.6 516.2 L 75.4 516.0 L 76.1 515.8 L 76.9 515.6 L 77.7 515.4 L 78.5 515.2 L 79.3 515.0 L 80.1 514.8 L 80.9 514.6 L 81.8 514.4 L 82.7 514.2 L 83.5 514.0 L 84.4 513.8 L 85.3 513.6 L 86.2 513.3 L 87.1 513.1 L 88.0 512.9 L 89.0 512.7 L 89.9 512.4 L 90.9 512.2 L 91.8 512.0 L 92.8 511.8 L 93.8 511.5 L 94.8 511.3 L 95.8 511.0 L 96.8 510.8 L 97.8 510.6 L 98.8 510.3 L 99.9 510.1 L 100.9 509.8 L 102.0 509.6 L 103.0 509.3 L 104.1 509.1 L 105.2 508.8 L 106.3 508.6 L 107.4 508.3 L 108.5 508.1 L 109.6 507.8 L 110.7 507.6 L 111.8 507.3 L 112.9 507.1 L 114.1 506.8 L 115.2 506.6 L 116.4 506.3 L 117.5 506.1 L 118.7 505.8 L 119.8 505.5 L 121.0 505.3 L 122.2 505.0 L 123.4 504.8 L 124.6 504.5 L 125.8 504.2 L 127.0 504.0 L 128.2 503.7 L 129.4 503.4 L 130.6 503.2 L 131.8 502.9 L 133.1 502.7 L 134.3 502.4 L 135.5 502.1 L 136.8 501.9 L 138.0 501.6 L 139.3 501.3 L 140.5 501.1 L 141.8 500.8 L 143.1 500.5 L 144.3 500.3 L 145.6 500.0 L 146.9 499.7 L 148.2 499.5 L 149.5 499.2 L 150.8 499.0 L 152.1 498.7 L 153.4 498.4 L 154.7 498.2 L 156.0 497.9 L 157.3 497.6 L 158.6 497.4 L 159.9 497.1 L 161.3 496.8 L 162.6 496.6 L 163.9 496.3 L 165.3 496.0 L 166.6 495.8 L 168.0 495.5 L 169.3 495.2 L 170.7 495.0 L 172.0 494.7 L 173.4 494.4 L 174.7 494.2 L 176.1 493.9 L 177.5 493.7 L 178.8 493.4 L 180.2 493.1 L 181.6 492.9 L 183.0 492.6 L 184.3 492.3 L 185.7 492.1 L 187.1 491.8 L 188.5 491.6 L 189.9 491.3 L 191.3 491.0 L 192.7 490.8 L 194.1 490.5 L 195.5 490.3 L 196.9 490.0 L 198.3 489.8 L 199.8 489.5 L 201.2 489.2 L 202.6 489.0 L 204.0 488.7 L 205.4 488.5 L 206.9 488.2 L 208.3 488.0 L 209.7 487.7 L 211.2 487.4 L 212.6 487.2 L 214.0 486.9 L 215.5 486.7 L 216.9 486.4 L 218.4 486.2 L 219.8 485.9 L 221.3 485.7 L 222.7 485.4 L 224.2 485.2 L 225.6 484.9 L 227.1 484.7 L 228.5 484.4 L 230.0 484.2 L 231.5 483.9 L 232.9 483.7 L 234.4 483.4 L 235.9 483.2 L 237.3 482.9 L 238.8 482.7 L 240.3 482.4 L 241.8 482.2 L 243.3 481.9 L 244.7 481.7 L 246.2 481.5 L 247.7 481.2 L 249.2 481.0 L 250.7 480.7 L 252.2 480.5 L 253.7 480.2 L 255.2 480.0 L 256.7 479.8 L 258.1 479.5 L 259.6 479.3 L 261.1 479.0 L 262.7 478.8 L 264.2 478.6 L 265.7 478.3 L 267.2 478.1 L 268.7 477.9 L 270.2 477.6 L 271.7 477.4 L 273.2 477.1 L 274.7 476.9 L 276.2 476.7 L 277.8 476.4 L 279.3 476.2 L 280.8 476.0 L 282.3 475.7 L 283.8 475.5 L 285.4 475.3 L 286.9 475.0 L 288.4 474.8 L 289.9 474.6 L 291.5 474.4 L 293.0 474.1 L 294.5 473.9 L 296.1 473.7 L 297.6 473.4 L 299.1 473.2 L 300.7 473.0 L 302.2 472.8 L 303.8 472.5 L 305.3 472.3 L 306.8 472.1 L 308.4 471.9 L 309.9 471.6 L 311.5 471.4 L 313.0 471.2 L 314.6 471.0 L 316.1 470.8 L 317.7 470.5 L 319.2 470.3 L 320.8 470.1 L 322.3 469.9 L 323.9 469.7 L 325.4 469.4 L 327.0 469.2 L 328.6 469.0 L 330.1 468.8 L 331.7 468.6 L 333.2 468.3 L 334.8 468.1 L 336.4 467.9 L 337.9 467.7 L 339.5 467.5 L 341.0 467.3 L 342.6 467.1 L 344.2 466.8 L 345.7 466.6 L 347.3 466.4 L 348.9 466.2 L 350.5 466.0 L 352.0 465.8 L 353.6 465.6 L 355.2 465.4 L 356.7 465.2 L 358.3 464.9 L 359.9 464.7 L 361.5 464.5 L 363.0 464.3 L 364.6 464.1 L 366.2 463.9 L 367.8 463.7 L 369.4 463.5 L 370.9 463.3 L 372.5 463.1 L 374.1 462.9 L 375.7 462.7 L 377.3 462.5 L 378.8 462.3 L 380.4 462.1 L 382.0 461.8 L 383.6 461.6 L 385.2 461.4 L 386.8 461.2 L 388.4 461.0 L 390.0 460.8 L 391.5 460.6 L 393.1 460.4 L 394.7 460.2 L 396.3 460.0 L 397.9 459.8 L 399.5 459.6 L 401.1 459.4 L 402.7 459.2 L 404.3 459.0 L 405.9 458.8 L 407.4 458.6 L 409.0 458.4 L 410.6 458.2 L 412.2 458.0 L 413.8 457.8 L 415.4 457.6 L 416.1 457.6" pathLength="361.8" stroke-dasharray="361.8" stroke-dashoffset="361.8">
<animate attributeName="stroke-dashoffset" values="361.8;0" dur="28.44s" repeatCount="indefinite" />
</path>
<circle cx="60.0" cy="520.0" r="4" fill="none" stroke="#e63946" stroke-width="1.4" />
<circle r="5" fill="#e63946" stroke="#000" stroke-width="0.6">
<animateMotion dur="28.44s" repeatCount="indefinite" rotate="0">
<mpath xlink:href="#p2t0" href="#p2t0" />
</animateMotion>
</circle>
<path id="p2t1" class="track" stroke="#1d3557" d="M 60.0 457.3 L 61.3 457.3 L 62.5 457.3 L 63.8 457.3 L 65.0 457.3 L 66.3 457.3 L 67.5 457.3 L 68.8 457.3 L 70.0 457.3 L 71.3 457.3 L 72.5 457.3 L 73.8 457.3 L 75.0 457.3 L 76.3 457.3 L 77.5 457.3 L 78.8 457.3 L 80.1 457.3 L 81.3 457.3 L 82.6 457.3 L 83.8 457.3 L 85.1 457.3 L 86.3 457.3 L 87.6 457.3 L 88.8 457.3 L 90.1 457.3 L 91.3 457.3 L 92.6 457.3 L 93.8 457.3 L 95.1 457.3 L 96.3 457.3 L 97.6 457.3 L 98.9 457.3 L 100.1 457.3 L 101.4 457.3 L 102.6 457.3 L 103.9 457.3 L 105.1 457.3 L 106.4 457.3 L 107.6 457.3 L 108.9 457.3 L 110.1 457.3 L 111.4 457.3 L 112.6 457.3 L 113.9 457.3 L 115.1 457.3 L 116.4 457.3 L 117.7 457.3 L 118.9 457.3 L 120.2 457.3 L 121.4 457.3 L 122.7 457.3 L 123.9 457.3 L 125.2 457.3 L 126.4 457.3 L 127.7 457.3 L 128.9 457.3 L 130.2 457.3 L 131.4 457.3 L 132.7 457.3 L 133.9 457.3 L 135.2 457.3 L 136.5 457.3 L 137.7 457.3 L 139.0 457.3 L 140.2 457.3 L 141.5 457.3 L 142.7 457.3 L 144.0 457.3 L 145.2 457.3 L 146.5 457.3 L 147.7 457.3 L 149.0 457.3 L 150.2 457.3 L 151.5 457.3 L 152.7 457.3 L 154.0 457.3 L 155.3 457.3 L 156.5 457.3 L 157.8 457.3 L 159.0 457.3 L 160.3 457.3 L 161.5 457.3 L 162.8 457.3 L 164.0 457.3 L 165.3 457.3 L 166.5 457.3 L 167.8 457.3 L 169.0 457.3 L 170.3 457.3 L 171.5 457.3 L 172.8 457.3 L 174.1 457.3 L 175.3 457.3 L 176.6 457.3 L 177.8 457.3 L 179.1 457.3 L 180.3 457.3 L 181.6 457.3 L 182.8 457.3 L 184.1 457.3 L 185.3 457.3 L 186.6 457.3 L 187.8 457.3 L 189.1 457.3 L 190.3 457.3 L 191.6 457.3 L 192.9 457.3 L 194.1 457.3 L 195.4 457.3 L 196.6 457.3 L 197.9 457.3 L 199.1 457.3 L 200.4 457.3 L 201.6 457.3 L 202.9 457.3 L 204.1 457.3 L 205.4 457.3 L 206.6 457.3 L 207.9 457.3 L 209.1 457.3 L 210.4 457.3 L 211.7 457.3 L 212.9 457.3 L 214.2 457.3 L 215.4 457.3 L 216.7 457.3 L 217.9 457.3 L 219.2 457.3 L 220.4 457.3 L 221.7 457.3 L 222.9 457.3 L 224.2 457.3 L 225.4 457.3 L 226.7 457.3 L 227.9 457.3 L 229.2 457.3 L 230.5 457.3 L 231.7 457.3 L 233.0 457.3 L 234.2 457.3 L 235.5 457.3 L 236.7 457.3 L 238.0 457.3 L 239.2 457.3 L 240.5 457.3 L 241.7 457.3 L 243.0 457.3 L 244.2 457.3 L 245.5 457.3 L 246.7 457.3 L 248.0 457.3 L 249.3 457.3 L 250.5 457.3 L 251.8 457.3 L 253.0 457.3 L 254.3 457.3 L 255.5 457.3 L 256.8 457.3 L 258.0 457.3 L 259.3 457.3 L 260.5 457.3 L 261.8 457.3 L 263.0 457.3 L 264.3 457.3 L 265.5 457.3 L 266.8 457.3 L 268.1 457.3 L 269.3 457.3 L 270.6 457.3 L 271.8 457.3 L 273.1 457.3 L 274.3 457.3 L 275.6 457.3 L 276.8 457.3 L 278.1 457.3 L 279.3 457.3 L 280.6 457.3 L 281.8 457.3 L 283.1 457.3 L 284.3 457.3 L 285.6 457.3 L 286.9 457.3 L 288.1 457.3 L 289.4 457.3 L 290.6 457.3 L 291.9 457.3 L 293.1 457.3 L 294.4 457.3 L 295.6 457.3 L 296.9 457.3 L 298.1 457.3 L 299.4 457.3 L 300.6 457.3 L 301.9 457.3 L 303.1 457.3 L 304.4 457.3 L 305.7 457.3 L 306.9 457.3 L 308.2 457.3 L 309.4 457.3 L 310.7 457.3 L 311.9 457.3 L 313.2 457.3 L 314.4 457.3 L 315.7 457.3 L 316.9 457.3 L 318.2 457.3 L 319.4 457.3 L 320.7 457.3 L 321.9 457.3 L 323.2 457.3 L 324.5 457.3 L 325.7 457.3 L 327.0 457.3 L 328.2 457.3 L 329.5 457.3 L 330.7 457.3 L 332.0 457.3 L 333.2 457.3 L 334.5 457.3 L 335.7 457.3 L 337.0 457.3 L 338.2 457.3 L 339.5 457.3 L 340.7 457.3 L 342.0 457.3 L 343.3 457.3 L 344.5 457.3 L 345.8 457.3 L 347.0 457.3 L 348.3 457.3 L 349.5 457.3 L 350.8 457.3 L 352.0 457.3 L 353.3 457.3 L 354.5 457.3 L 355.8 457.3 L 357.0 457.3 L 358.3 457.3 L 359.5 457.3 L 360.8 457.3 L 362.1 457.3 L 363.3 457.3 L 364.6 457.3 L 365.8 457.3 L 367.1 457.3 L 368.3 457.3 L 369.6 457.3 L 370.8 457.3 L 372.1 457.3 L 373.3 457.3 L 374.6 457.3 L 375.8 457.3 L 377.1 457.3 L 378.3 457.3 L 379.6 457.3 L 380.9 457.3 L 382.1 457.3 L 383.4 457.3 L 384.6 457.3 L 385.9 457.3 L 387.1 457.3 L 388.4 457.3 L 389.6 457.3 L 390.9 457.3 L 392.1 457.3 L 393.4 457.3 L 394.6 457.3 L 395.9 457.3 L 397.1 457.3 L 398.4 457.3 L 399.7 457.3 L 400.9 457.3 L 402.2 457.3 L 403.4 457.3 L 404.7 457.3 L 405.9 457.3 L 407.2 457.3 L 408.4 457.3 L 409.7 457.3 L 410.9 457.3 L 412.2 457.3 L 413.4 457.3 L 414.7 457.3 L 415.9 457.3 L 416.4 457.3" pathLength="356.4" stroke-dasharray="356.4" stroke-dashoffset="356.4">
<animate attributeName="stroke-dashoffset" values="356.4;0" dur="28.44s" repeatCount="indefinite" />
</path>
<circle cx="60.0" cy="457.3" r="4" fill="none" stroke="#1d3557" stroke-width="1.4" />
<circle r="5" fill="#1d3557" stroke="#000" stroke-width="0.6">
<animateMotion dur="28.44s" repeatCount="indefinite" rotate="0">
<mpath xlink:href="#p2t1" href="#p2t1" />
</animateMotion>
</circle>
</g>
<g transform="translate(680,680)">
<rect class="panel" width="560" height="560" />
<text class="title" x="20" y="38">crossing — missile (red) vs target (blue)</text>
<text class="summary" x="20" y="70">tracks        : 2</text>
<text class="summary" x="20" y="92">total samples : 572</text>
<text class="summary" x="20" y="114">duration      : 28.44 s</text>
<text class="summary" x="20" y="136"></text>
<text class="summary-dim" x="20" y="158">legend:</text>
<line x1="30" y1="180.0" x2="60" y2="180.0" stroke="#e63946" stroke-width="2.2" />
<circle cx="45" cy="180.0" r="3.5" fill="#e63946" />
<text class="summary-dim" x="70" y="184.0">missile    end (4987, 996, 5682) m  (286 samples)</text>
<line x1="30" y1="202.0" x2="60" y2="202.0" stroke="#1d3557" stroke-width="2.2" />
<circle cx="45" cy="202.0" r="3.5" fill="#1d3557" />
<text class="summary-dim" x="70" y="206.0">target     end (5000, 1000, 5688) m  (286 samples)</text>
</g>
</svg>
