<?xml version="1.0" encoding="UTF-8"?>
<svg xmlns="http://www.w3.org/2000/svg" xmlns:xlink="http://www.w3.org/1999/xlink" viewBox="0 0 1300 1300" width="1300" height="1300">
<style>
  .bg { fill: #0c1116; }
.panel { fill: #11161c; stroke: #2a3340; stroke-width: 1; }
.grid { stroke: #1c2430; stroke-width: 1; }
.axis { stroke: #4a5260; stroke-width: 1; }
.ground { stroke: #6b5a26; stroke-width: 1.5; stroke-dasharray: 4 3; }
.tick { fill: #7a8290; font: 11px monospace; }
.title { fill: #d6deea; font: 14px monospace; font-weight: bold; }
.subtitle { fill: #7a8290; font: 11px monospace; }
.summary { fill: #d6deea; font: 13px monospace; }
.summary-dim { fill: #7a8290; font: 12px monospace; }
.track { fill: none; stroke-width: 1.8; }
.start { stroke-width: 1.2; }
.end { stroke-width: 1.0; }
</style>
<rect class="bg" width="1300" height="1300" />
<g transform="translate(60,60)">
<rect class="panel" width="560" height="560" />
<text class="title" x="10" y="18">SIDE  X x Y</text>
<text class="subtitle" x="10" y="32">X -&gt; range (horiz),  Y -&gt; alt (vert)</text>
<line class="grid" x1="60.0" y1="50.0" x2="60.0" y2="520.0" />
<line class="grid" x1="60.0" y1="520.0" x2="530.0" y2="520.0" />
<text class="tick" x="60.0" y="534.0" text-anchor="middle">0</text>
<text class="tick" x="56.0" y="524.0" text-anchor="end">0</text>
<line class="grid" x1="154.0" y1="50.0" x2="154.0" y2="520.0" />
<line class="grid" x1="60.0" y1="426.0" x2="530.0" y2="426.0" />
<text class="tick" x="154.0" y="534.0" text-anchor="middle">3.0k</text>
<text class="tick" x="56.0" y="430.0" text-anchor="end">3.0k</text>
<line class="grid" x1="248.0" y1="50.0" x2="248.0" y2="520.0" />
<line class="grid" x1="60.0" y1="332.0" x2="530.0" y2="332.0" />
<text class="tick" x="248.0" y="534.0" text-anchor="middle">6.0k</text>
<text class="tick" x="56.0" y="336.0" text-anchor="end">6.0k</text>
<line class="grid" x1="342.0" y1="50.0" x2="342.0" y2="520.0" />
<line class="grid" x1="60.0" y1="238.0" x2="530.0" y2="238.0" />
<text class="tick" x="342.0" y="534.0" text-anchor="middle">9.0k</text>
<text class="tick" x="56.0" y="242.0" text-anchor="end">9.0k</text>
<line class="grid" x1="436.0" y1="50.0" x2="436.0" y2="520.0" />
<line class="grid" x1="60.0" y1="144.0" x2="530.0" y2="144.0" />
<text class="tick" x="436.0" y="534.0" text-anchor="middle">12.0k</text>
<text class="tick" x="56.0" y="148.0" text-anchor="end">12.0k</text>
<line class="grid" x1="530.0" y1="50.0" x2="530.0" y2="520.0" />
<line class="grid" x1="60.0" y1="50.0" x2="530.0" y2="50.0" />
<text class="tick" x="530.0" y="534.0" text-anchor="middle">15.0k</text>
<text class="tick" x="56.0" y="54.0" text-anchor="end">15.0k</text>
<line class="axis" x1="60.0" y1="50.0" x2="60.0" y2="520.0" />
<line class="axis" x1="60.0" y1="520.0" x2="530.0" y2="520.0" />
<line class="ground" x1="60.0" y1="520.0" x2="530.0" y2="520.0" />
<path id="p0t0" class="track" stroke="#e63946" d="M 60.0 520.0 L 61.1 520.0 L 62.2 520.0 L 63.3 519.9 L 64.4 519.8 L 65.5 519.7 L 66.6 519.6 L 67.7 519.5 L 68.7 519.4 L 69.8 519.2 L 70.9 519.0 L 72.0 518.8 L 73.1 518.6 L 74.1 518.3 L 75.2 518.1 L 76.3 517.8 L 77.3 517.6 L 78.4 517.3 L 79.4 516.9 L 80.5 516.6 L 81.5 516.3 L 82.5 515.9 L 83.6 515.6 L 84.6 515.2 L 85.6 514.8 L 86.6 514.4 L 87.6 514.0 L 88.6 513.6 L 89.6 513.1 L 90.6 512.7 L 91.6 512.2 L 92.6 511.8 L 93.6 511.3 L 94.6 510.8 L 95.5 510.3 L 96.5 509.8 L 97.5 509.3 L 98.4 508.8 L 99.4 508.3 L 100.3 507.8 L 101.3 507.2 L 102.2 506.7 L 103.2 506.2 L 104.1 505.6 L 105.0 505.0 L 105.9 504.5 L 106.9 503.9 L 107.8 503.3 L 108.7 502.7 L 109.6 502.2 L 110.5 501.6 L 111.4 501.0 L 112.3 500.4 L 113.2 499.8 L 114.1 499.1 L 115.0 498.5 L 115.9 497.9 L 116.8 497.3 L 117.7 496.6 L 118.5 496.0 L 119.4 495.4 L 120.3 494.7 L 121.2 494.1 L 122.0 493.4 L 122.9 492.8 L 123.7 492.1 L 124.6 491.5 L 125.5 490.8 L 126.3 490.2 L 127.2 489.5 L 128.0 488.8 L 128.9 488.2 L 129.7 487.5 L 130.6 486.8 L 131.4 486.1 L 132.2 485.5 L 133.1 484.8 L 133.9 484.1 L 134.8 483.4 L 135.6 482.7 L 136.4 482.0 L 137.3 481.3 L 138.1 480.7 L 138.9 480.0 L 139.7 479.3 L 140.6 478.6 L 141.4 477.9 L 142.2 477.2 L 143.0 476.5 L 143.9 475.8 L 144.7 475.1 L 145.5 474.4 L 146.3 473.7 L 147.1 472.9 L 147.9 472.2 L 148.7 471.5 L 149.6 470.8 L 150.4 470.1 L 151.2 469.4 L 152.0 468.7 L 152.8 468.0 L 153.6 467.2 L 154.4 466.5 L 155.2 465.8 L 156.0 465.1 L 156.8 464.4 L 157.6 463.7 L 158.4 462.9 L 159.3 462.2 L 160.1 461.5 L 160.9 460.8 L 161.7 460.1 L 162.5 459.3 L 163.3 458.6 L 164.1 457.9 L 164.9 457.2 L 165.7 456.4 L 166.5 455.7 L 167.3 455.0 L 168.1 454.3 L 168.9 453.5 L 169.7 452.8 L 170.5 452.1 L 171.3 451.4 L 172.1 450.6 L 172.9 449.9 L 173.7 449.2 L 174.5 448.5 L 175.3 447.7 L 176.1 447.0 L 176.9 446.3 L 177.7 445.6 L 178.5 444.8 L 179.3 444.1 L 180.1 443.4 L 180.9 442.7 L 181.7 441.9 L 182.5 441.2 L 183.3 440.5 L 184.0 439.7 L 184.8 439.0 L 185.6 438.3 L 186.4 437.6 L 187.2 436.8 L 188.0 436.1 L 188.8 435.4 L 189.6 434.7 L 189.8 434.5" pathLength="158.5" stroke-dasharray="158.5" stroke-dashoffset="158.5">
<animate attributeName="stroke-dashoffset" values="158.5;0" dur="14.62s" repeatCount="indefinite" />
</path>
<circle cx="60.0" cy="520.0" r="4" fill="none" stroke="#e63946" stroke-width="1.4" />
<circle r="5" fill="#e63946" stroke="#000" stroke-width="0.6">
<animateMotion dur="14.62s" repeatCount="indefinite" rotate="0">
<mpath xlink:href="#p0t0" href="#p0t0" />
</animateMotion>
</circle>
<path id="p0t1" class="track" stroke="#1d3557" d="M 373.3 457.3 L 372.1 457.2 L 370.8 457.0 L 369.6 456.9 L 368.3 456.7 L 367.1 456.6 L 365.8 456.4 L 364.6 456.2 L 363.3 456.1 L 362.1 455.9 L 360.8 455.8 L 359.5 455.6 L 358.3 455.5 L 357.0 455.3 L 355.8 455.1 L 354.5 455.0 L 353.3 454.8 L 352.0 454.7 L 350.8 454.5 L 349.5 454.4 L 348.3 454.2 L 347.0 454.0 L 345.8 453.9 L 344.5 453.7 L 343.3 453.6 L 342.0 453.4 L 340.7 453.3 L 339.5 453.1 L 338.2 452.9 L 337.0 452.8 L 335.7 452.6 L 334.5 452.5 L 333.2 452.3 L 332.0 452.2 L 330.7 452.0 L 329.5 451.9 L 328.2 451.7 L 327.0 451.5 L 325.7 451.4 L 324.5 451.2 L 323.2 451.1 L 321.9 450.9 L 320.7 450.8 L 319.4 450.6 L 318.2 450.4 L 316.9 450.3 L 315.7 450.1 L 314.4 450.0 L 313.2 449.8 L 311.9 449.7 L 310.7 449.5 L 309.4 449.3 L 308.2 449.2 L 306.9 449.0 L 305.7 448.9 L 304.4 448.7 L 303.1 448.6 L 301.9 448.4 L 300.6 448.2 L 299.4 448.1 L 298.1 447.9 L 296.9 447.8 L 295.6 447.6 L 294.4 447.5 L 293.1 447.3 L 291.9 447.1 L 290.6 447.0 L 289.4 446.8 L 288.1 446.7 L 286.9 446.5 L 285.6 446.4 L 284.3 446.2 L 283.1 446.1 L 281.8 445.9 L 280.6 445.7 L 279.3 445.6 L 278.1 445.4 L 276.8 445.3 L 275.6 445.1 L 274.3 445.0 L 273.1 444.8 L 271.8 444.6 L 270.6 444.5 L 269.3 444.3 L 268.1 444.2 L 266.8 444.0 L 265.5 443.9 L 264.3 443.7 L 263.0 443.5 L 261.8 443.4 L 260.5 443.2 L 259.3 443.1 L 258.0 442.9 L 256.8 442.8 L 255.5 442.6 L 254.3 442.4 L 253.0 442.3 L 251.8 442.1 L 250.5 442.0 L 249.3 441.8 L 248.0 441.7 L 246.7 441.5 L 245.5 441.4 L 244.2 441.2 L 243.0 441.0 L 241.7 440.9 L 240.5 440.7 L 239.2 440.6 L 238.0 440.4 L 236.7 440.3 L 235.5 440.1 L 234.2 439.9 L 233.0 439.8 L 231.7 439.6 L 230.5 439.5 L 229.2 439.3 L 227.9 439.2 L 226.7 439.0 L 225.4 438.8 L 224.2 438.7 L 222.9 438.5 L 221.7 438.4 L 220.4 438.2 L 219.2 438.1 L 217.9 437.9 L 216.7 437.8 L 215.4 437.6 L 214.2 437.4 L 212.9 437.3 L 211.7 437.1 L 210.4 437.0 L 209.1 436.8 L 207.9 436.7 L 206.6 436.5 L 205.4 436.3 L 204.1 436.2 L 202.9 436.0 L 201.6 435.9 L 200.4 435.7 L 199.1 435.6 L 197.9 435.4 L 196.6 435.2 L 195.4 435.1 L 194.1 434.9 L 192.9 434.8 L 191.6 434.6 L 190.3 434.5 L 190.1 434.4" pathLength="184.7" stroke-dasharray="184.7" stroke-dashoffset="184.7">
<animate attributeName="stroke-dashoffset" values="184.7;0" dur="14.62s" repeatCount="indefinite" />
</path>
<circle cx="373.3" cy="457.3" r="4" fill="none" stroke="#1d3557" stroke-width="1.4" />
<circle r="5" fill="#1d3557" stroke="#000" stroke-width="0.6">
<animateMotion dur="14.62s" repeatCount="indefinite" rotate="0">
<mpath xlink:href="#p0t1" href="#p0t1" />
</animateMotion>
</circle>
</g>
<g transform="translate(680,60)">
<rect class="panel" width="560" height="560" />
<text class="title" x="10" y="18">TOP   X x Z</text>
<text class="subtitle" x="10" y="32">X -&gt; range (horiz),  Z -&gt; cross (vert)</text>
<line class="grid" x1="60.0" y1="50.0" x2="60.0" y2="520.0" />
<line class="grid" x1="60.0" y1="520.0" x2="530.0" y2="520.0" />
<text class="tick" x="60.0" y="534.0" text-anchor="middle">0</text>
<text class="tick" x="56.0" y="524.0" text-anchor="end">0</text>
<line class="grid" x1="154.0" y1="50.0" x2="154.0" y2="520.0" />
<line class="grid" x1="60.0" y1="426.0" x2="530.0" y2="426.0" />
<text class="tick" x="154.0" y="534.0" text-anchor="middle">3.0k</text>
<text class="tick" x="56.0" y="430.0" text-anchor="end">3.0k</text>
<line class="grid" x1="248.0" y1="50.0" x2="248.0" y2="520.0" />
<line class="grid" x1="60.0" y1="332.0" x2="530.0" y2="332.0" />
<text class="tick" x="248.0" y="534.0" text-anchor="middle">6.0k</text>
<text class="tick" x="56.0" y="336.0" text-anchor="end">6.0k</text>
<line class="grid" x1="342.0" y1="50.0" x2="342.0" y2="520.0" />
<line class="grid" x1="60.0" y1="238.0" x2="530.0" y2="238.0" />
<text class="tick" x="342.0" y="534.0" text-anchor="middle">9.0k</text>
<text class="tick" x="56.0" y="242.0" text-anchor="end">9.0k</text>
<line class="grid" x1="436.0" y1="50.0" x2="436.0" y2="520.0" />
<line class="grid" x1="60.0" y1="144.0" x2="530.0" y2="144.0" />
<text class="tick" x="436.0" y="534.0" text-anchor="middle">12.0k</text>
<text class="tick" x="56.0" y="148.0" text-anchor="end">12.0k</text>
<line class="grid" x1="530.0" y1="50.0" x2="530.0" y2="520.0" />
<line class="grid" x1="60.0" y1="50.0" x2="530.0" y2="50.0" />
<text class="tick" x="530.0" y="534.0" text-anchor="middle">15.0k</text>
<text class="tick" x="56.0" y="54.0" text-anchor="end">15.0k</text>
<line class="axis" x1="60.0" y1="50.0" x2="60.0" y2="520.0" />
<line class="axis" x1="60.0" y1="520.0" x2="530.0" y2="520.0" />
<path id="p1t0" class="track" stroke="#e63946" d="M 60.0 520.0 L 61.1 520.0 L 62.2 520.0 L 63.3 520.0 L 64.4 520.0 L 65.5 519.9 L 66.6 519.9 L 67.7 519.9 L 68.7 519.8 L 69.8 519.8 L 70.9 519.7 L 72.0 519.6 L 73.1 519.6 L 74.1 519.5 L 75.2 519.4 L 76.3 519.4 L 77.3 519.3 L 78.4 519.2 L 79.4 519.1 L 80.5 519.0 L 81.5 518.9 L 82.5 518.8 L 83.6 518.7 L 84.6 518.6 L 85.6 518.5 L 86.6 518.4 L 87.6 518.2 L 88.6 518.1 L 89.6 518.0 L 90.6 517.9 L 91.6 517.7 L 92.6 517.6 L 93.6 517.5 L 94.6 517.3 L 95.5 517.2 L 96.5 517.0 L 97.5 516.9 L 98.4 516.7 L 99.4 516.6 L 100.3 516.4 L 101.3 516.3 L 102.2 516.1 L 103.2 516.0 L 104.1 515.8 L 105.0 515.6 L 105.9 515.5 L 106.9 515.3 L 107.8 515.1 L 108.7 515.0 L 109.6 514.8 L 110.5 514.6 L 111.4 514.4 L 112.3 514.3 L 113.2 514.1 L 114.1 513.9 L 115.0 513.7 L 115.9 513.6 L 116.8 513.4 L 117.7 513.2 L 118.5 513.0 L 119.4 512.8 L 120.3 512.7 L 121.2 512.5 L 122.0 512.3 L 122.9 512.1 L 123.7 511.9 L 124.6 511.7 L 125.5 511.5 L 126.3 511.4 L 127.2 511.2 L 128.0 511.0 L 128.9 510.8 L 129.7 510.6 L 130.6 510.4 L 131.4 510.2 L 132.2 510.0 L 133.1 509.8 L 133.9 509.6 L 134.8 509.4 L 135.6 509.3 L 136.4 509.1 L 137.3 508.9 L 138.1 508.7 L 138.9 508.5 L 139.7 508.3 L 140.6 508.1 L 141.4 507.9 L 142.2 507.7 L 143.0 507.5 L 143.9 507.3 L 144.7 507.1 L 145.5 506.9 L 146.3 506.7 L 147.1 506.5 L 147.9 506.3 L 148.7 506.1 L 149.6 505.9 L 150.4 505.7 L 151.2 505.5 L 152.0 505.3 L 152.8 505.1 L 153.6 504.9 L 154.4 504.7 L 155.2 504.5 L 156.0 504.3 L 156.8 504.1 L 157.6 504.0 L 158.4 503.8 L 159.3 503.6 L 160.1 503.4 L 160.9 503.2 L 161.7 503.0 L 162.5 502.8 L 163.3 502.6 L 164.1 502.4 L 164.9 502.2 L 165.7 502.0 L 166.5 501.8 L 167.3 501.6 L 168.1 501.4 L 168.9 501.2 L 169.7 501.0 L 170.5 500.8 L 171.3 500.6 L 172.1 500.4 L 172.9 500.2 L 173.7 500.0 L 174.5 499.8 L 175.3 499.6 L 176.1 499.4 L 176.9 499.2 L 177.7 499.0 L 178.5 498.8 L 179.3 498.6 L 180.1 498.4 L 180.9 498.2 L 181.7 498.0 L 182.5 497.8 L 183.3 497.6 L 184.0 497.4 L 184.8 497.2 L 185.6 497.0 L 186.4 496.8 L 187.2 496.6 L 188.0 496.4 L 188.8 496.2 L 189.6 496.0 L 189.8 496.0" pathLength="132.3" stroke-dasharray="132.3" stroke-dashoffset="132.3">
<animate attributeName="stroke-dashoffset" values="132.3;0" dur="14.62s" repeatCount="indefinite" />
</path>
<circle cx="60.0" cy="520.0" r="4" fill="none" stroke="#e63946" stroke-width="1.4" />
<circle r="5" fill="#e63946" stroke="#000" stroke-width="0.6">
<animateMotion dur="14.62s" repeatCount="indefinite" rotate="0">
<mpath xlink:href="#p1t0" href="#p1t0" />
</animateMotion>
</circle>
<path id="p1t1" class="track" stroke="#1d3557" d="M 373.3 473.0 L 372.1 473.2 L 370.8 473.3 L 369.6 473.5 L 368.3 473.6 L 367.1 473.8 L 365.8 473.9 L 364.6 474.1 L 363.3 474.3 L 362.1 474.4 L 360.8 474.6 L 359.5 474.7 L 358.3 474.9 L 357.0 475.0 L 355.8 475.2 L 354.5 475.4 L 353.3 475.5 L 352.0 475.7 L 350.8 475.8 L 349.5 476.0 L 348.3 476.1 L 347.0 476.3 L 345.8 476.4 L 344.5 476.6 L 343.3 476.8 L 342.0 476.9 L 340.7 477.1 L 339.5 477.2 L 338.2 477.4 L 337.0 477.5 L 335.7 477.7 L 334.5 477.9 L 333.2 478.0 L 332.0 478.2 L 330.7 478.3 L 329.5 478.5 L 328.2 478.6 L 327.0 478.8 L 325.7 479.0 L 324.5 479.1 L 323.2 479.3 L 321.9 479.4 L 320.7 479.6 L 319.4 479.7 L 318.2 479.9 L 316.9 480.1 L 315.7 480.2 L 314.4 480.4 L 313.2 480.5 L 311.9 480.7 L 310.7 480.8 L 309.4 481.0 L 308.2 481.1 L 306.9 481.3 L 305.7 481.5 L 304.4 481.6 L 303.1 481.8 L 301.9 481.9 L 300.6 482.1 L 299.4 482.2 L 298.1 482.4 L 296.9 482.6 L 295.6 482.7 L 294.4 482.9 L 293.1 483.0 L 291.9 483.2 L 290.6 483.3 L 289.4 483.5 L 288.1 483.7 L 286.9 483.8 L 285.6 484.0 L 284.3 484.1 L 283.1 484.3 L 281.8 484.4 L 280.6 484.6 L 279.3 484.8 L 278.1 484.9 L 276.8 485.1 L 275.6 485.2 L 274.3 485.4 L 273.1 485.5 L 271.8 485.7 L 270.6 485.8 L 269.3 486.0 L 268.1 486.2 L 266.8 486.3 L 265.5 486.5 L 264.3 486.6 L 263.0 486.8 L 261.8 486.9 L 260.5 487.1 L 259.3 487.3 L 258.0 487.4 L 256.8 487.6 L 255.5 487.7 L 254.3 487.9 L 253.0 488.0 L 251.8 488.2 L 250.5 488.4 L 249.3 488.5 L 248.0 488.7 L 246.7 488.8 L 245.5 489.0 L 244.2 489.1 L 243.0 489.3 L 241.7 489.4 L 240.5 489.6 L 239.2 489.8 L 238.0 489.9 L 236.7 490.1 L 235.5 490.2 L 234.2 490.4 L 233.0 490.5 L 231.7 490.7 L 230.5 490.9 L 229.2 491.0 L 227.9 491.2 L 226.7 491.3 L 225.4 491.5 L 224.2 491.6 L 222.9 491.8 L 221.7 492.0 L 220.4 492.1 L 219.2 492.3 L 217.9 492.4 L 216.7 492.6 L 215.4 492.7 L 214.2 492.9 L 212.9 493.1 L 211.7 493.2 L 210.4 493.4 L 209.1 493.5 L 207.9 493.7 L 206.6 493.8 L 205.4 494.0 L 204.1 494.1 L 202.9 494.3 L 201.6 494.5 L 200.4 494.6 L 199.1 494.8 L 197.9 494.9 L 196.6 495.1 L 195.4 495.2 L 194.1 495.4 L 192.9 495.6 L 191.6 495.7 L 190.3 495.9 L 190.1 495.9" pathLength="184.7" stroke-dasharray="184.7" stroke-dashoffset="184.7">
<animate attributeName="stroke-dashoffset" values="184.7;0" dur="14.62s" repeatCount="indefinite" />
</path>
<circle cx="373.3" cy="473.0" r="4" fill="none" stroke="#1d3557" stroke-width="1.4" />
<circle r="5" fill="#1d3557" stroke="#000" stroke-width="0.6">
<animateMotion dur="14.62s" repeatCount="indefinite" rotate="0">
<mpath xlink:href="#p1t1" href="#p1t1" />
</animateMotion>
</circle>
</g>
<g transform="translate(60,680)">
<rect class="panel" width="560" height="560" />
<text class="title" x="10" y="18">FRONT Z x Y</text>
<text class="subtitle" x="10" y="32">Z -&gt; cross (horiz),  Y -&gt; alt (vert)</text>
<line class="grid" x1="60.0" y1="50.0" x2="60.0" y2="520.0" />
<line class="grid" x1="60.0" y1="520.0" x2="530.0" y2="520.0" />
<text class="tick" x="60.0" y="534.0" text-anchor="middle">0</text>
<text class="tick" x="56.0" y="524.0" text-anchor="end">0</text>
<line class="grid" x1="154.0" y1="50.0" x2="154.0" y2="520.0" />
<line class="grid" x1="60.0" y1="426.0" x2="530.0" y2="426.0" />
<text class="tick" x="154.0" y="534.0" text-anchor="middle">3.0k</text>
<text class="tick" x="56.0" y="430.0" text-anchor="end">3.0k</text>
<line class="grid" x1="248.0" y1="50.0" x2="248.0" y2="520.0" />
<line class="grid" x1="60.0" y1="332.0" x2="530.0" y2="332.0" />
<text class="tick" x="248.0" y="534.0" text-anchor="middle">6.0k</text>
<text class="tick" x="56.0" y="336.0" text-anchor="end">6.0k</text>
<line class="grid" x1="342.0" y1="50.0" x2="342.0" y2="520.0" />
<line class="grid" x1="60.0" y1="238.0" x2="530.0" y2="238.0" />
<text class="tick" x="342.0" y="534.0" text-anchor="middle">9.0k</text>
<text class="tick" x="56.0" y="242.0" text-anchor="end">9.0k</text>
<line class="grid" x1="436.0" y1="50.0" x2="436.0" y2="520.0" />
<line class="grid" x1="60.0" y1="144.0" x2="530.0" y2="144.0" />
<text class="tick" x="436.0" y="534.0" text-anchor="middle">12.0k</text>
<text class="tick" x="56.0" y="148.0" text-anchor="end">12.0k</text>
<line class="grid" x1="530.0" y1="50.0" x2="530.0" y2="520.0" />
<line class="grid" x1="60.0" y1="50.0" x2="530.0" y2="50.0" />
<text class="tick" x="530.0" y="534.0" text-anchor="middle">15.0k</text>
<text class="tick" x="56.0" y="54.0" text-anchor="end">15.0k</text>
<line class="axis" x1="60.0" y1="50.0" x2="60.0" y2="520.0" />
<line class="axis" x1="60.0" y1="520.0" x2="530.0" y2="520.0" />
<line class="ground" x1="60.0" y1="520.0" x2="530.0" y2="520.0" />
<path id="p2t0" class="track" stroke="#e63946" d="M 60.0 520.0 L 60.0 520.0 L 60.0 520.0 L 60.0 519.9 L 60.0 519.8 L 60.1 519.7 L 60.1 519.6 L 60.1 519.5 L 60.2 519.4 L 60.2 519.2 L 60.3 519.0 L 60.4 518.8 L 60.4 518.6 L 60.5 518.3 L 60.6 518.1 L 60.6 517.8 L 60.7 517.6 L 60.8 517.3 L 60.9 516.9 L 61.0 516.6 L 61.1 516.3 L 61.2 515.9 L 61.3 515.6 L 61.4 515.2 L 61.5 514.8 L 61.6 514.4 L 61.8 514.0 L 61.9 513.6 L 62.0 513.1 L 62.1 512.7 L 62.3 512.2 L 62.4 511.8 L 62.5 511.3 L 62.7 510.8 L 62.8 510.3 L 63.0 509.8 L 63.1 509.3 L 63.3 508.8 L 63.4 508.3 L 63.6 507.8 L 63.7 507.2 L 63.9 506.7 L 64.0 506.2 L 64.2 505.6 L 64.4 505.0 L 64.5 504.5 L 64.7 503.9 L 64.9 503.3 L 65.0 502.7 L 65.2 502.2 L 65.4 501.6 L 65.6 501.0 L 65.7 500.4 L 65.9 499.8 L 66.1 499.1 L 66.3 498.5 L 66.4 497.9 L 66.6 497.3 L 66.8 496.6 L 67.0 496.0 L 67.2 495.4 L 67.3 494.7 L 67.5 494.1 L 67.7 493.4 L 67.9 492.8 L 68.1 492.1 L 68.3 491.5 L 68.5 490.8 L 68.6 490.2 L 68.8 489.5 L 69.0 488.8 L 69.2 488.2 L 69.4 487.5 L 69.6 486.8 L 69.8 486.1 L 70.0 485.5 L 70.2 484.8 L 70.4 484.1 L 70.6 483.4 L 70.7 482.7 L 70.9 482.0 L 71.1 481.3 L 71.3 480.7 L 71.5 480.0 L 71.7 479.3 L 71.9 478.6 L 72.1 477.9 L 72.3 477.2 L 72.5 476.5 L 72.7 475.8 L 72.9 475.1 L 73.1 474.4 L 73.3 473.7 L 73.5 472.9 L 73.7 472.2 L 73.9 471.5 L 74.1 470.8 L 74.3 470.1 L 74.5 469.4 L 74.7 468.7 L 74.9 468.0 L 75.1 467.2 L 75.3 466.5 L 75.5 465.8 L 75.7 465.1 L 75.9 464.4 L 76.0 463.7 L 76.2 462.9 L 76.4 462.2 L 76.6 461.5 L 76.8 460.8 L 77.0 460.1 L 77.2 459.3 L 77.4 458.6 L 77.6 457.9 L 77.8 457.2 L 78.0 456.4 L 78.2 455.7 L 78.4 455.0 L 78.6 454.3 L 78.8 453.5 L 79.0 452.8 L 79.2 452.1 L 79.4 451.4 L 79.6 450.6 L 79.8 449.9 L 80.0 449.2 L 80.2 448.5 L 80.4 447.7 L 80.6 447.0 L 80.8 446.3 L 81.0 445.6 L 81.2 444.8 L 81.4 444.1 L 81.6 443.4 L 81.8 442.7 L 82.0 441.9 L 82.2 441.2 L 82.4 440.5 L 82.6 439.7 L 82.8 439.0 L 83.0 438.3 L 83.2 437.6 L 83.4 436.8 L 83.6 436.1 L 83.8 435.4 L 84.0 434.7 L 84.0 434.5" pathLength="88.8" stroke-dasharray="88.8" stroke-dashoffset="88.8">
<animate attributeName="stroke-dashoffset" values="88.8;0" dur="14.62s" repeatCount="indefinite" />
</path>
<circle cx="60.0" cy="520.0" r="4" fill="none" stroke="#e63946" stroke-width="1.4" />
<circle r="5" fill="#e63946" stroke="#000" stroke-width="0.6">
<animateMotion dur="14.62s" repeatCount="indefinite" rotate="0">
<mpath xlink:href="#p2t0" href="#p2t0" />
</animateMotion>
</circle>
<path id="p2t1" class="track" stroke="#1d3557" d="M 107.0 457.3 L 106.8 457.2 L 106.7 457.0 L 106.5 456.9 L 106.4 456.7 L 106.2 456.6 L 106.1 456.4 L 105.9 456.2 L 105.7 456.1 L 105.6 455.9 L 105.4 455.8 L 105.3 455.6 L 105.1 455.5 L 105.0 455.3 L 104.8 455.1 L 104.7 455.0 L 104.5 454.8 L 104.3 454.7 L 104.2 454.5 L 104.0 454.4 L 103.9 454.2 L 103.7 454.0 L 103.6 453.9 L 103.4 453.7 L 103.2 453.6 L 103.1 453.4 L 102.9 453.3 L 102.8 453.1 L 102.6 452.9 L 102.5 452.8 L 102.3 452.6 L 102.1 452.5 L 102.0 452.3 L 101.8 452.2 L 101.7 452.0 L 101.5 451.9 L 101.4 451.7 L 101.2 451.5 L 101.0 451.4 L 100.9 451.2 L 100.7 451.1 L 100.6 450.9 L 100.4 450.8 L 100.3 450.6 L 100.1 450.4 L 100.0 450.3 L 99.8 450.1 L 99.6 450.0 L 99.5 449.8 L 99.3 449.7 L 99.2 449.5 L 99.0 449.3 L 98.9 449.2 L 98.7 449.0 L 98.5 448.9 L 98.4 448.7 L 98.2 448.6 L 98.1 448.4 L 97.9 448.2 L 97.8 448.1 L 97.6 447.9 L 97.4 447.8 L 97.3 447.6 L 97.1 447.5 L 97.0 447.3 L 96.8 447.1 L 96.7 447.0 L 96.5 446.8 L 96.3 446.7 L 96.2 446.5 L 96.0 446.4 L 95.9 446.2 L 95.7 446.1 L 95.6 445.9 L 95.4 445.7 L 95.2 445.6 L 95.1 445.4 L 94.9 445.3 L 94.8 445.1 L 94.6 445.0 L 94.5 444.8 L 94.3 444.6 L 94.2 444.5 L 94.0 444.3 L 93.8 444.2 L 93.7 444.0 L 93.5 443.9 L 93.4 443.7 L 93.2 443.5 L 93.1 443.4 L 92.9 443.2 L 92.7 443.1 L 92.6 442.9 L 92.4 442.8 L 92.3 442.6 L 92.1 442.4 L 92.0 442.3 L 91.8 442.1 L 91.6 442.0 L 91.5 441.8 L 91.3 441.7 L 91.2 441.5 L 91.0 441.4 L 90.9 441.2 L 90.7 441.0 L 90.5 440.9 L 90.4 440.7 L 90.2 440.6 L 90.1 440.4 L 89.9 440.3 L 89.8 440.1 L 89.6 439.9 L 89.5 439.8 L 89.3 439.6 L 89.1 439.5 L 89.0 439.3 L 88.8 439.2 L 88.7 439.0 L 88.5 438.8 L 88.4 438.7 L 88.2 438.5 L 88.0 438.4 L 87.9 438.2 L 87.7 438.1 L 87.6 437.9 L 87.4 437.8 L 87.3 437.6 L 87.1 437.4 L 86.9 437.3 L 86.8 437.1 L 86.6 437.0 L 86.5 436.8 L 86.3 436.7 L 86.2 436.5 L 86.0 436.3 L 85.8 436.2 L 85.7 436.0 L 85.5 435.9 L 85.4 435.7 L 85.2 435.6 L 85.1 435.4 L 84.9 435.2 L 84.8 435.1 L 84.6 434.9 L 84.4 434.8 L 84.3 434.6 L 84.1 434.5 L 84.1 434.4" pathLength="32.4" stroke-dasharray="32.4" stroke-dashoffset="32.4">
<animate attributeName="stroke-dashoffset" values="32.4;0" dur="14.62s" repeatCount="indefinite" />
</path>
<circle cx="107.0" cy="457.3" r="4" fill="none" stroke="#1d3557" stroke-width="1.4" />
<circle r="5" fill="#1d3557" stroke="#000" stroke-width="0.6">
<animateMotion dur="14.62s" repeatCount="indefinite" rotate="0">
<mpath xlink:href="#p2t1" href="#p2t1" />
</animateMotion>
</circle>
</g>
<g transform="translate(680,680)">
<rect class="panel" width="560" height="560" />
<text class="title" x="20" y="38">fast_target — missile (red) vs target (blue)</text>
<text class="summary" x="20" y="70">tracks        : 2</text>
<text class="summary" x="20" y="92">total samples : 296</text>
<text class="summary" x="20" y="114">duration      : 14.62 s</text>
<text class="summary" x="20" y="136"></text>
<text class="summary-dim" x="20" y="158">legend:</text>
<line x1="30" y1="180.0" x2="60" y2="180.0" stroke="#e63946" stroke-width="2.2" />
<circle cx="45" cy="180.0" r="3.5" fill="#e63946" />
<text class="summary-dim" x="70" y="184.0">missile    end (4142, 2728, 767) m  (148 samples)</text>
<line x1="30" y1="202.0" x2="60" y2="202.0" stroke="#1d3557" stroke-width="2.2" />
<circle cx="45" cy="202.0" r="3.5" fill="#1d3557" />
<text class="summary-dim" x="70" y="206.0">target     end (4152, 2731, 769) m  (148 samples)</text>
</g>
</svg>
