<?xml version="1.0" encoding="UTF-8"?>
<svg xmlns="http://www.w3.org/2000/svg" xmlns:xlink="http://www.w3.org/1999/xlink" viewBox="0 0 1300 1300" width="1300" height="1300">
<style>
  .bg { fill: #0c1116; }
.panel { fill: #11161c; stroke: #2a3340; stroke-width: 1; }
.grid { stroke: #1c2430; stroke-width: 1; }
.axis { stroke: #4a5260; stroke-width: 1; }
.ground { stroke: #6b5a26; stroke-width: 1.5; stroke-dasharray: 4 3; }
.tick { fill: #7a8290; font: 11px monospace; }
.title { fill: #d6deea; font: 14px monospace; font-weight: bold; }
.subtitle { fill: #7a8290; font: 11px monospace; }
.summary { fill: #d6deea; font: 13px monospace; }
.summary-dim { fill: #7a8290; font: 12px monospace; }
.track { fill: none; stroke-width: 1.8; }
.start { stroke-width: 1.2; }
.end { stroke-width: 1.0; }
</style>
<rect class="bg" width="1300" height="1300" />
<g transform="translate(60,60)">
<rect class="panel" width="560" height="560" />
<text class="title" x="10" y="18">SIDE  X x Y</text>
<text class="subtitle" x="10" y="32">X -&gt; range (horiz),  Y -&gt; alt (vert)</text>
<line class="grid" x1="60.0" y1="50.0" x2="60.0" y2="520.0" />
<line class="grid" x1="60.0" y1="520.0" x2="530.0" y2="520.0" />
<text class="tick" x="60.0" y="534.0" text-anchor="middle">0</text>
<text class="tick" x="56.0" y="524.0" text-anchor="end">0</text>
<line class="grid" x1="154.0" y1="50.0" x2="154.0" y2="520.0" />
<line class="grid" x1="60.0" y1="426.0" x2="530.0" y2="426.0" />
<text class="tick" x="154.0" y="534.0" text-anchor="middle">2.0k</text>
<text class="tick" x="56.0" y="430.0" text-anchor="end">2.0k</text>
<line class="grid" x1="248.0" y1="50.0" x2="248.0" y2="520.0" />
<line class="grid" x1="60.0" y1="332.0" x2="530.0" y2="332.0" />
<text class="tick" x="248.0" y="534.0" text-anchor="middle">4.0k</text>
<text class="tick" x="56.0" y="336.0" text-anchor="end">4.0k</text>
<line class="grid" x1="342.0" y1="50.0" x2="342.0" y2="520.0" />
<line class="grid" x1="60.0" y1="238.0" x2="530.0" y2="238.0" />
<text class="tick" x="342.0" y="534.0" text-anchor="middle">6.0k</text>
<text class="tick" x="56.0" y="242.0" text-anchor="end">6.0k</text>
<line class="grid" x1="436.0" y1="50.0" x2="436.0" y2="520.0" />
<line class="grid" x1="60.0" y1="144.0" x2="530.0" y2="144.0" />
<text class="tick" x="436.0" y="534.0" text-anchor="middle">8.0k</text>
<text class="tick" x="56.0" y="148.0" text-anchor="end">8.0k</text>
<line class="grid" x1="530.0" y1="50.0" x2="530.0" y2="520.0" />
<line class="grid" x1="60.0" y1="50.0" x2="530.0" y2="50.0" />
<text class="tick" x="530.0" y="534.0" text-anchor="middle">10.0k</text>
<text class="tick" x="56.0" y="54.0" text-anchor="end">10.0k</text>
<line class="axis" x1="60.0" y1="50.0" x2="60.0" y2="520.0" />
<line class="axis" x1="60.0" y1="520.0" x2="530.0" y2="520.0" />
<line class="ground" x1="60.0" y1="520.0" x2="530.0" y2="520.0" />
<path id="p0t0" class="track" stroke="#e63946" d="M 60.0 520.0 L 61.4 520.0 L 62.8 520.0 L 64.2 520.0 L 65.6 520.0 L 67.0 520.0 L 68.5 520.0 L 69.9 520.0 L 71.3 520.0 L 72.7 520.0 L 74.1 520.0 L 75.5 520.0 L 76.9 519.9 L 78.3 519.9 L 79.7 519.9 L 81.1 519.9 L 82.6 519.9 L 84.0 519.9 L 85.4 519.9 L 86.8 519.9 L 88.2 519.9 L 89.6 519.9 L 91.0 519.8 L 92.4 519.8 L 93.8 519.8 L 95.2 519.8 L 96.7 519.8 L 98.1 519.8 L 99.5 519.7 L 100.9 519.7 L 102.3 519.7 L 103.7 519.7 L 105.1 519.7 L 106.5 519.7 L 107.9 519.6 L 109.3 519.6 L 110.8 519.6 L 112.2 519.6 L 113.6 519.5 L 115.0 519.5 L 116.4 519.5 L 117.8 519.5 L 119.2 519.5 L 120.6 519.4 L 122.0 519.4 L 123.4 519.4 L 124.9 519.4 L 126.3 519.3 L 127.7 519.3 L 129.1 519.3 L 130.5 519.3 L 131.9 519.2 L 133.3 519.2 L 134.7 519.2 L 136.1 519.1 L 137.5 519.1 L 139.0 519.1 L 140.4 519.1 L 141.8 519.0 L 143.2 519.0 L 144.6 519.0 L 146.0 518.9 L 147.4 518.9 L 148.8 518.9 L 150.2 518.9 L 151.6 518.8 L 153.1 518.8 L 154.5 518.8 L 155.9 518.7 L 157.3 518.7 L 158.7 518.7 L 160.1 518.6 L 161.5 518.6 L 162.9 518.6 L 164.3 518.5 L 165.7 518.5 L 167.1 518.5 L 168.6 518.4 L 170.0 518.4 L 171.4 518.4 L 172.8 518.3 L 174.2 518.3 L 175.6 518.3 L 177.0 518.2 L 178.4 518.2 L 179.8 518.2 L 181.2 518.1 L 182.7 518.1 L 184.1 518.1 L 185.5 518.0 L 186.9 518.0 L 188.3 517.9 L 189.7 517.9 L 191.1 517.9 L 192.5 517.8 L 193.9 517.8 L 195.3 517.8 L 196.7 517.7 L 198.2 517.7 L 199.6 517.7 L 201.0 517.6 L 202.4 517.6 L 203.8 517.5 L 205.2 517.5 L 206.6 517.5 L 208.0 517.4 L 209.4 517.4 L 210.8 517.4 L 212.3 517.3 L 213.7 517.3 L 215.1 517.2 L 216.5 517.2 L 217.9 517.2 L 219.3 517.1 L 220.7 517.1 L 222.1 517.1 L 223.5 517.0 L 224.9 517.0 L 226.3 516.9 L 227.8 516.9 L 229.2 516.9 L 230.6 516.8 L 232.0 516.8 L 233.4 516.7 L 234.8 516.7 L 236.2 516.7 L 237.6 516.6 L 239.0 516.6 L 240.4 516.6 L 241.9 516.5 L 243.3 516.5 L 244.7 516.4 L 246.1 516.4 L 247.5 516.4 L 248.9 516.3 L 250.3 516.3 L 251.7 516.2 L 253.1 516.2 L 254.5 516.2 L 255.9 516.1 L 257.4 516.1 L 258.8 516.0 L 260.2 516.0 L 261.6 516.0 L 263.0 515.9 L 264.4 515.9 L 265.8 515.8 L 267.2 515.8 L 268.6 515.8 L 270.0 515.7 L 271.4 515.7 L 272.9 515.7 L 274.3 515.6 L 275.7 515.6 L 277.1 515.5 L 278.5 515.5 L 279.9 515.5 L 281.3 515.4 L 282.7 515.4 L 284.1 515.3 L 285.3 515.3" pathLength="225.3" stroke-dasharray="225.3" stroke-dashoffset="225.3">
<animate attributeName="stroke-dashoffset" values="225.3;0" dur="15.98s" repeatCount="indefinite" />
</path>
<circle cx="60.0" cy="520.0" r="4" fill="none" stroke="#e63946" stroke-width="1.4" />
<circle r="5" fill="#e63946" stroke="#000" stroke-width="0.6">
<animateMotion dur="15.98s" repeatCount="indefinite" rotate="0">
<mpath xlink:href="#p0t0" href="#p0t0" />
</animateMotion>
</circle>
<path id="p0t1" class="track" stroke="#1d3557" d="M 436.0 515.3 L 435.1 515.3 L 434.1 515.3 L 433.2 515.3 L 432.2 515.3 L 431.3 515.3 L 430.4 515.3 L 429.4 515.3 L 428.5 515.3 L 427.5 515.3 L 426.6 515.3 L 425.7 515.3 L 424.7 515.3 L 423.8 515.3 L 422.8 515.3 L 421.9 515.3 L 421.0 515.3 L 420.0 515.3 L 419.1 515.3 L 418.1 515.3 L 417.2 515.3 L 416.3 515.3 L 415.3 515.3 L 414.4 515.3 L 413.4 515.3 L 412.5 515.3 L 411.6 515.3 L 410.6 515.3 L 409.7 515.3 L 408.7 515.3 L 407.8 515.3 L 406.9 515.3 L 405.9 515.3 L 405.0 515.3 L 404.0 515.3 L 403.1 515.3 L 402.2 515.3 L 401.2 515.3 L 400.3 515.3 L 399.3 515.3 L 398.4 515.3 L 397.5 515.3 L 396.5 515.3 L 395.6 515.3 L 394.6 515.3 L 393.7 515.3 L 392.8 515.3 L 391.8 515.3 L 390.9 515.3 L 389.9 515.3 L 389.0 515.3 L 388.1 515.3 L 387.1 515.3 L 386.2 515.3 L 385.2 515.3 L 384.3 515.3 L 383.4 515.3 L 382.4 515.3 L 381.5 515.3 L 380.5 515.3 L 379.6 515.3 L 378.7 515.3 L 377.7 515.3 L 376.8 515.3 L 375.8 515.3 L 374.9 515.3 L 374.0 515.3 L 373.0 515.3 L 372.1 515.3 L 371.1 515.3 L 370.2 515.3 L 369.3 515.3 L 368.3 515.3 L 367.4 515.3 L 366.4 515.3 L 365.5 515.3 L 364.6 515.3 L 363.6 515.3 L 362.7 515.3 L 361.7 515.3 L 360.8 515.3 L 359.9 515.3 L 358.9 515.3 L 358.0 515.3 L 357.0 515.3 L 356.1 515.3 L 355.2 515.3 L 354.2 515.3 L 353.3 515.3 L 352.3 515.3 L 351.4 515.3 L 350.5 515.3 L 349.5 515.3 L 348.6 515.3 L 347.6 515.3 L 346.7 515.3 L 345.8 515.3 L 344.8 515.3 L 343.9 515.3 L 342.9 515.3 L 342.0 515.3 L 341.1 515.3 L 340.1 515.3 L 339.2 515.3 L 338.2 515.3 L 337.3 515.3 L 336.4 515.3 L 335.4 515.3 L 334.5 515.3 L 333.5 515.3 L 332.6 515.3 L 331.7 515.3 L 330.7 515.3 L 329.8 515.3 L 328.8 515.3 L 327.9 515.3 L 327.0 515.3 L 326.0 515.3 L 325.1 515.3 L 324.1 515.3 L 323.2 515.3 L 322.3 515.3 L 321.3 515.3 L 320.4 515.3 L 319.4 515.3 L 318.5 515.3 L 317.6 515.3 L 316.6 515.3 L 315.7 515.3 L 314.7 515.3 L 313.8 515.3 L 312.9 515.3 L 311.9 515.3 L 311.0 515.3 L 310.0 515.3 L 309.1 515.3 L 308.2 515.3 L 307.2 515.3 L 306.3 515.3 L 305.3 515.3 L 304.4 515.3 L 303.5 515.3 L 302.5 515.3 L 301.6 515.3 L 300.6 515.3 L 299.7 515.3 L 298.8 515.3 L 297.8 515.3 L 296.9 515.3 L 295.9 515.3 L 295.0 515.3 L 294.1 515.3 L 293.1 515.3 L 292.2 515.3 L 291.2 515.3 L 290.3 515.3 L 289.4 515.3 L 288.4 515.3 L 287.5 515.3 L 286.5 515.3 L 285.8 515.3" pathLength="150.2" stroke-dasharray="150.2" stroke-dashoffset="150.2">
<animate attributeName="stroke-dashoffset" values="150.2;0" dur="15.98s" repeatCount="indefinite" />
</path>
<circle cx="436.0" cy="515.3" r="4" fill="none" stroke="#1d3557" stroke-width="1.4" />
<circle r="5" fill="#1d3557" stroke="#000" stroke-width="0.6">
<animateMotion dur="15.98s" repeatCount="indefinite" rotate="0">
<mpath xlink:href="#p0t1" href="#p0t1" />
</animateMotion>
</circle>
</g>
<g transform="translate(680,60)">
<rect class="panel" width="560" height="560" />
<text class="title" x="10" y="18">TOP   X x Z</text>
<text class="subtitle" x="10" y="32">X -&gt; range (horiz),  Z -&gt; cross (vert)</text>
<line class="grid" x1="60.0" y1="50.0" x2="60.0" y2="520.0" />
<line class="grid" x1="60.0" y1="520.0" x2="530.0" y2="520.0" />
<text class="tick" x="60.0" y="534.0" text-anchor="middle">0</text>
<text class="tick" x="56.0" y="524.0" text-anchor="end">0</text>
<line class="grid" x1="154.0" y1="50.0" x2="154.0" y2="520.0" />
<line class="grid" x1="60.0" y1="426.0" x2="530.0" y2="426.0" />
<text class="tick" x="154.0" y="534.0" text-anchor="middle">2.0k</text>
<text class="tick" x="56.0" y="430.0" text-anchor="end">2.0k</text>
<line class="grid" x1="248.0" y1="50.0" x2="248.0" y2="520.0" />
<line class="grid" x1="60.0" y1="332.0" x2="530.0" y2="332.0" />
<text class="tick" x="248.0" y="534.0" text-anchor="middle">4.0k</text>
<text class="tick" x="56.0" y="336.0" text-anchor="end">4.0k</text>
<line class="grid" x1="342.0" y1="50.0" x2="342.0" y2="520.0" />
<line class="grid" x1="60.0" y1="238.0" x2="530.0" y2="238.0" />
<text class="tick" x="342.0" y="534.0" text-anchor="middle">6.0k</text>
<text class="tick" x="56.0" y="242.0" text-anchor="end">6.0k</text>
<line class="grid" x1="436.0" y1="50.0" x2="436.0" y2="520.0" />
<line class="grid" x1="60.0" y1="144.0" x2="530.0" y2="144.0" />
<text class="tick" x="436.0" y="534.0" text-anchor="middle">8.0k</text>
<text class="tick" x="56.0" y="148.0" text-anchor="end">8.0k</text>
<line class="grid" x1="530.0" y1="50.0" x2="530.0" y2="520.0" />
<line class="grid" x1="60.0" y1="50.0" x2="530.0" y2="50.0" />
<text class="tick" x="530.0" y="534.0" text-anchor="middle">10.0k</text>
<text class="tick" x="56.0" y="54.0" text-anchor="end">10.0k</text>
<line class="axis" x1="60.0" y1="50.0" x2="60.0" y2="520.0" />
<line class="axis" x1="60.0" y1="520.0" x2="530.0" y2="520.0" />
<path id="p1t0" class="track" stroke="#e63946" d="M 60.0 520.0 L 61.4 520.0 L 62.8 520.0 L 64.2 520.0 L 65.6 520.0 L 67.0 520.0 L 68.5 520.0 L 69.9 520.0 L 71.3 520.0 L 72.7 520.0 L 74.1 520.0 L 75.5 520.0 L 76.9 520.0 L 78.3 520.0 L 79.7 520.0 L 81.1 520.0 L 82.6 520.0 L 84.0 520.0 L 85.4 520.0 L 86.8 520.0 L 88.2 520.0 L 89.6 520.0 L 91.0 520.0 L 92.4 520.0 L 93.8 520.0 L 95.2 520.0 L 96.7 520.0 L 98.1 520.0 L 99.5 520.0 L 100.9 520.0 L 102.3 520.0 L 103.7 520.0 L 105.1 520.0 L 106.5 520.0 L 107.9 520.0 L 109.3 520.0 L 110.8 520.0 L 112.2 520.0 L 113.6 520.0 L 115.0 520.0 L 116.4 520.0 L 117.8 520.0 L 119.2 520.0 L 120.6 520.0 L 122.0 520.0 L 123.4 520.0 L 124.9 520.0 L 126.3 520.0 L 127.7 520.0 L 129.1 520.0 L 130.5 520.0 L 131.9 520.0 L 133.3 520.0 L 134.7 520.0 L 136.1 520.0 L 137.5 520.0 L 139.0 520.0 L 140.4 520.0 L 141.8 520.0 L 143.2 520.0 L 144.6 520.0 L 146.0 520.0 L 147.4 520.0 L 148.8 520.0 L 150.2 520.0 L 151.6 520.0 L 153.1 520.0 L 154.5 520.0 L 155.9 520.0 L 157.3 520.0 L 158.7 520.0 L 160.1 520.0 L 161.5 520.0 L 162.9 520.0 L 164.3 520.0 L 165.7 520.0 L 167.1 520.0 L 168.6 520.0 L 170.0 520.0 L 171.4 520.0 L 172.8 520.0 L 174.2 520.0 L 175.6 520.0 L 177.0 520.0 L 178.4 520.0 L 179.8 520.0 L 181.2 520.0 L 182.7 520.0 L 184.1 520.0 L 185.5 520.0 L 186.9 520.0 L 188.3 520.0 L 189.7 520.0 L 191.1 520.0 L 192.5 520.0 L 193.9 520.0 L 195.3 520.0 L 196.7 520.0 L 198.2 520.0 L 199.6 520.0 L 201.0 520.0 L 202.4 520.0 L 203.8 520.0 L 205.2 520.0 L 206.6 520.0 L 208.0 520.0 L 209.4 520.0 L 210.8 520.0 L 212.3 520.0 L 213.7 520.0 L 215.1 520.0 L 216.5 520.0 L 217.9 520.0 L 219.3 520.0 L 220.7 520.0 L 222.1 520.0 L 223.5 520.0 L 224.9 520.0 L 226.3 520.0 L 227.8 520.0 L 229.2 520.0 L 230.6 520.0 L 232.0 520.0 L 233.4 520.0 L 234.8 520.0 L 236.2 520.0 L 237.6 520.0 L 239.0 520.0 L 240.4 520.0 L 241.9 520.0 L 243.3 520.0 L 244.7 520.0 L 246.1 520.0 L 247.5 520.0 L 248.9 520.0 L 250.3 520.0 L 251.7 520.0 L 253.1 520.0 L 254.5 520.0 L 255.9 520.0 L 257.4 520.0 L 258.8 520.0 L 260.2 520.0 L 261.6 520.0 L 263.0 520.0 L 264.4 520.0 L 265.8 520.0 L 267.2 520.0 L 268.6 520.0 L 270.0 520.0 L 271.4 520.0 L 272.9 520.0 L 274.3 520.0 L 275.7 520.0 L 277.1 520.0 L 278.5 520.0 L 279.9 520.0 L 281.3 520.0 L 282.7 520.0 L 284.1 520.0 L 285.3 520.0" pathLength="225.3" stroke-dasharray="225.3" stroke-dashoffset="225.3">
<animate attributeName="stroke-dashoffset" values="225.3;0" dur="15.98s" repeatCount="indefinite" />
</path>
<circle cx="60.0" cy="520.0" r="4" fill="none" stroke="#e63946" stroke-width="1.4" />
<circle r="5" fill="#e63946" stroke="#000" stroke-width="0.6">
<animateMotion dur="15.98s" repeatCount="indefinite" rotate="0">
<mpath xlink:href="#p1t0" href="#p1t0" />
</animateMotion>
</circle>
<path id="p1t1" class="track" stroke="#1d3557" d="M 436.0 520.0 L 435.1 520.0 L 434.1 520.0 L 433.2 520.0 L 432.2 520.0 L 431.3 520.0 L 430.4 520.0 L 429.4 520.0 L 428.5 520.0 L 427.5 520.0 L 426.6 520.0 L 425.7 520.0 L 424.7 520.0 L 423.8 520.0 L 422.8 520.0 L 421.9 520.0 L 421.0 520.0 L 420.0 520.0 L 419.1 520.0 L 418.1 520.0 L 417.2 520.0 L 416.3 520.0 L 415.3 520.0 L 414.4 520.0 L 413.4 520.0 L 412.5 520.0 L 411.6 520.0 L 410.6 520.0 L 409.7 520.0 L 408.7 520.0 L 407.8 520.0 L 406.9 520.0 L 405.9 520.0 L 405.0 520.0 L 404.0 520.0 L 403.1 520.0 L 402.2 520.0 L 401.2 520.0 L 400.3 520.0 L 399.3 520.0 L 398.4 520.0 L 397.5 520.0 L 396.5 520.0 L 395.6 520.0 L 394.6 520.0 L 393.7 520.0 L 392.8 520.0 L 391.8 520.0 L 390.9 520.0 L 389.9 520.0 L 389.0 520.0 L 388.1 520.0 L 387.1 520.0 L 386.2 520.0 L 385.2 520.0 L 384.3 520.0 L 383.4 520.0 L 382.4 520.0 L 381.5 520.0 L 380.5 520.0 L 379.6 520.0 L 378.7 520.0 L 377.7 520.0 L 376.8 520.0 L 375.8 520.0 L 374.9 520.0 L 374.0 520.0 L 373.0 520.0 L 372.1 520.0 L 371.1 520.0 L 370.2 520.0 L 369.3 520.0 L 368.3 520.0 L 367.4 520.0 L 366.4 520.0 L 365.5 520.0 L 364.6 520.0 L 363.6 520.0 L 362.7 520.0 L 361.7 520.0 L 360.8 520.0 L 359.9 520.0 L 358.9 520.0 L 358.0 520.0 L 357.0 520.0 L 356.1 520.0 L 355.2 520.0 L 354.2 520.0 L 353.3 520.0 L 352.3 520.0 L 351.4 520.0 L 350.5 520.0 L 349.5 520.0 L 348.6 520.0 L 347.6 520.0 L 346.7 520.0 L 345.8 520.0 L 344.8 520.0 L 343.9 520.0 L 342.9 520.0 L 342.0 520.0 L 341.1 520.0 L 340.1 520.0 L 339.2 520.0 L 338.2 520.0 L 337.3 520.0 L 336.4 520.0 L 335.4 520.0 L 334.5 520.0 L 333.5 520.0 L 332.6 520.0 L 331.7 520.0 L 330.7 520.0 L 329.8 520.0 L 328.8 520.0 L 327.9 520.0 L 327.0 520.0 L 326.0 520.0 L 325.1 520.0 L 324.1 520.0 L 323.2 520.0 L 322.3 520.0 L 321.3 520.0 L 320.4 520.0 L 319.4 520.0 L 318.5 520.0 L 317.6 520.0 L 316.6 520.0 L 315.7 520.0 L 314.7 520.0 L 313.8 520.0 L 312.9 520.0 L 311.9 520.0 L 311.0 520.0 L 310.0 520.0 L 309.1 520.0 L 308.2 520.0 L 307.2 520.0 L 306.3 520.0 L 305.3 520.0 L 304.4 520.0 L 303.5 520.0 L 302.5 520.0 L 301.6 520.0 L 300.6 520.0 L 299.7 520.0 L 298.8 520.0 L 297.8 520.0 L 296.9 520.0 L 295.9 520.0 L 295.0 520.0 L 294.1 520.0 L 293.1 520.0 L 292.2 520.0 L 291.2 520.0 L 290.3 520.0 L 289.4 520.0 L 288.4 520.0 L 287.5 520.0 L 286.5 520.0 L 285.8 520.0" pathLength="150.2" stroke-dasharray="150.2" stroke-dashoffset="150.2">
<animate attributeName="stroke-dashoffset" values="150.2;0" dur="15.98s" repeatCount="indefinite" />
</path>
<circle cx="436.0" cy="520.0" r="4" fill="none" stroke="#1d3557" stroke-width="1.4" />
<circle r="5" fill="#1d3557" stroke="#000" stroke-width="0.6">
<animateMotion dur="15.98s" repeatCount="indefinite" rotate="0">
<mpath xlink:href="#p1t1" href="#p1t1" />
</animateMotion>
</circle>
</g>
<g transform="translate(60,680)">
<rect class="panel" width="560" height="560" />
<text class="title" x="10" y="18">FRONT Z x Y</text>
<text class="subtitle" x="10" y="32">Z -&gt; cross (horiz),  Y -&gt; alt (vert)</text>
<line class="grid" x1="60.0" y1="50.0" x2="60.0" y2="520.0" />
<line class="grid" x1="60.0" y1="520.0" x2="530.0" y2="520.0" />
<text class="tick" x="60.0" y="534.0" text-anchor="middle">0</text>
<text class="tick" x="56.0" y="524.0" text-anchor="end">0</text>
<line class="grid" x1="154.0" y1="50.0" x2="154.0" y2="520.0" />
<line class="grid" x1="60.0" y1="426.0" x2="530.0" y2="426.0" />
<text class="tick" x="154.0" y="534.0" text-anchor="middle">2.0k</text>
<text class="tick" x="56.0" y="430.0" text-anchor="end">2.0k</text>
<line class="grid" x1="248.0" y1="50.0" x2="248.0" y2="520.0" />
<line class="grid" x1="60.0" y1="332.0" x2="530.0" y2="332.0" />
<text class="tick" x="248.0" y="534.0" text-anchor="middle">4.0k</text>
<text class="tick" x="56.0" y="336.0" text-anchor="end">4.0k</text>
<line class="grid" x1="342.0" y1="50.0" x2="342.0" y2="520.0" />
<line class="grid" x1="60.0" y1="238.0" x2="530.0" y2="238.0" />
<text class="tick" x="342.0" y="534.0" text-anchor="middle">6.0k</text>
<text class="tick" x="56.0" y="242.0" text-anchor="end">6.0k</text>
<line class="grid" x1="436.0" y1="50.0" x2="436.0" y2="520.0" />
<line class="grid" x1="60.0" y1="144.0" x2="530.0" y2="144.0" />
<text class="tick" x="436.0" y="534.0" text-anchor="middle">8.0k</text>
<text class="tick" x="56.0" y="148.0" text-anchor="end">8.0k</text>
<line class="grid" x1="530.0" y1="50.0" x2="530.0" y2="520.0" />
<line class="grid" x1="60.0" y1="50.0" x2="530.0" y2="50.0" />
<text class="tick" x="530.0" y="534.0" text-anchor="middle">10.0k</text>
<text class="tick" x="56.0" y="54.0" text-anchor="end">10.0k</text>
<line class="axis" x1="60.0" y1="50.0" x2="60.0" y2="520.0" />
<line class="axis" x1="60.0" y1="520.0" x2="530.0" y2="520.0" />
<line class="ground" x1="60.0" y1="520.0" x2="530.0" y2="520.0" />
<path id="p2t0" class="track" stroke="#e63946" d="M 60.0 520.0 L 60.0 520.0 L 60.0 520.0 L 60.0 520.0 L 60.0 520.0 L 60.0 520.0 L 60.0 520.0 L 60.0 520.0 L 60.0 520.0 L 60.0 520.0 L 60.0 520.0 L 60.0 520.0 L 60.0 519.9 L 60.0 519.9 L 60.0 519.9 L 60.0 519.9 L 60.0 519.9 L 60.0 519.9 L 60.0 519.9 L 60.0 519.9 L 60.0 519.9 L 60.0 519.9 L 60.0 519.8 L 60.0 519.8 L 60.0 519.8 L 60.0 519.8 L 60.0 519.8 L 60.0 519.8 L 60.0 519.7 L 60.0 519.7 L 60.0 519.7 L 60.0 519.7 L 60.0 519.7 L 60.0 519.7 L 60.0 519.6 L 60.0 519.6 L 60.0 519.6 L 60.0 519.6 L 60.0 519.5 L 60.0 519.5 L 60.0 519.5 L 60.0 519.5 L 60.0 519.5 L 60.0 519.4 L 60.0 519.4 L 60.0 519.4 L 60.0 519.4 L 60.0 519.3 L 60.0 519.3 L 60.0 519.3 L 60.0 519.3 L 60.0 519.2 L 60.0 519.2 L 60.0 519.2 L 60.0 519.1 L 60.0 519.1 L 60.0 519.1 L 60.0 519.1 L 60.0 519.0 L 60.0 519.0 L 60.0 519.0 L 60.0 518.9 L 60.0 518.9 L 60.0 518.9 L 60.0 518.9 L 60.0 518.8 L 60.0 518.8 L 60.0 518.8 L 60.0 518.7 L 60.0 518.7 L 60.0 518.7 L 60.0 518.6 L 60.0 518.6 L 60.0 518.6 L 60.0 518.5 L 60.0 518.5 L 60.0 518.5 L 60.0 518.4 L 60.0 518.4 L 60.0 518.4 L 60.0 518.3 L 60.0 518.3 L 60.0 518.3 L 60.0 518.2 L 60.0 518.2 L 60.0 518.2 L 60.0 518.1 L 60.0 518.1 L 60.0 518.1 L 60.0 518.0 L 60.0 518.0 L 60.0 517.9 L 60.0 517.9 L 60.0 517.9 L 60.0 517.8 L 60.0 517.8 L 60.0 517.8 L 60.0 517.7 L 60.0 517.7 L 60.0 517.7 L 60.0 517.6 L 60.0 517.6 L 60.0 517.5 L 60.0 517.5 L 60.0 517.5 L 60.0 517.4 L 60.0 517.4 L 60.0 517.4 L 60.0 517.3 L 60.0 517.3 L 60.0 517.2 L 60.0 517.2 L 60.0 517.2 L 60.0 517.1 L 60.0 517.1 L 60.0 517.1 L 60.0 517.0 L 60.0 517.0 L 60.0 516.9 L 60.0 516.9 L 60.0 516.9 L 60.0 516.8 L 60.0 516.8 L 60.0 516.7 L 60.0 516.7 L 60.0 516.7 L 60.0 516.6 L 60.0 516.6 L 60.0 516.6 L 60.0 516.5 L 60.0 516.5 L 60.0 516.4 L 60.0 516.4 L 60.0 516.4 L 60.0 516.3 L 60.0 516.3 L 60.0 516.2 L 60.0 516.2 L 60.0 516.2 L 60.0 516.1 L 60.0 516.1 L 60.0 516.0 L 60.0 516.0 L 60.0 516.0 L 60.0 515.9 L 60.0 515.9 L 60.0 515.8 L 60.0 515.8 L 60.0 515.8 L 60.0 515.7 L 60.0 515.7 L 60.0 515.7 L 60.0 515.6 L 60.0 515.6 L 60.0 515.5 L 60.0 515.5 L 60.0 515.5 L 60.0 515.4 L 60.0 515.4 L 60.0 515.3 L 60.0 515.3" pathLength="4.7" stroke-dasharray="4.7" stroke-dashoffset="4.7">
<animate attributeName="stroke-dashoffset" values="4.7;0" dur="15.98s" repeatCount="indefinite" />
</path>
<circle cx="60.0" cy="520.0" r="4" fill="none" stroke="#e63946" stroke-width="1.4" />
<circle r="5" fill="#e63946" stroke="#000" stroke-width="0.6">
<animateMotion dur="15.98s" repeatCount="indefinite" rotate="0">
<mpath xlink:href="#p2t0" href="#p2t0" />
</animateMotion>
</circle>
<path id="p2t1" class="track" stroke="#1d3557" d="M 60.0 515.3 L 60.0 515.3 L 60.0 515.3 L 60.0 515.3 L 60.0 515.3 L 60.0 515.3 L 60.0 515.3 L 60.0 515.3 L 60.0 515.3 L 60.0 515.3 L 60.0 515.3 L 60.0 515.3 L 60.0 515.3 L 60.0 515.3 L 60.0 515.3 L 60.0 515.3 L 60.0 515.3 L 60.0 515.3 L 60.0 515.3 L 60.0 515.3 L 60.0 515.3 L 60.0 515.3 L 60.0 515.3 L 60.0 515.3 L 60.0 515.3 L 60.0 515.3 L 60.0 515.3 L 60.0 515.3 L 60.0 515.3 L 60.0 515.3 L 60.0 515.3 L 60.0 515.3 L 60.0 515.3 L 60.0 515.3 L 60.0 515.3 L 60.0 515.3 L 60.0 515.3 L 60.0 515.3 L 60.0 515.3 L 60.0 515.3 L 60.0 515.3 L 60.0 515.3 L 60.0 515.3 L 60.0 515.3 L 60.0 515.3 L 60.0 515.3 L 60.0 515.3 L 60.0 515.3 L 60.0 515.3 L 60.0 515.3 L 60.0 515.3 L 60.0 515.3 L 60.0 515.3 L 60.0 515.3 L 60.0 515.3 L 60.0 515.3 L 60.0 515.3 L 60.0 515.3 L 60.0 515.3 L 60.0 515.3 L 60.0 515.3 L 60.0 515.3 L 60.0 515.3 L 60.0 515.3 L 60.0 515.3 L 60.0 515.3 L 60.0 515.3 L 60.0 515.3 L 60.0 515.3 L 60.0 515.3 L 60.0 515.3 L 60.0 515.3 L 60.0 515.3 L 60.0 515.3 L 60.0 515.3 L 60.0 515.3 L 60.0 515.3 L 60.0 515.3 L 60.0 515.3 L 60.0 515.3 L 60.0 515.3 L 60.0 515.3 L 60.0 515.3 L 60.0 515.3 L 60.0 515.3 L 60.0 515.3 L 60.0 515.3 L 60.0 515.3 L 60.0 515.3 L 60.0 515.3 L 60.0 515.3 L 60.0 515.3 L 60.0 515.3 L 60.0 515.3 L 60.0 515.3 L 60.0 515.3 L 60.0 515.3 L 60.0 515.3 L 60.0 515.3 L 60.0 515.3 L 60.0 515.3 L 60.0 515.3 L 60.0 515.3 L 60.0 515.3 L 60.0 515.3 L 60.0 515.3 L 60.0 515.3 L 60.0 515.3 L 60.0 515.3 L 60.0 515.3 L 60.0 515.3 L 60.0 515.3 L 60.0 515.3 L 60.0 515.3 L 60.0 515.3 L 60.0 515.3 L 60.0 515.3 L 60.0 515.3 L 60.0 515.3 L 60.0 515.3 L 60.0 515.3 L 60.0 515.3 L 60.0 515.3 L 60.0 515.3 L 60.0 515.3 L 60.0 515.3 L 60.0 515.3 L 60.0 515.3 L 60.0 515.3 L 60.0 515.3 L 60.0 515.3 L 60.0 515.3 L 60.0 515.3 L 60.0 515.3 L 60.0 515.3 L 60.0 515.3 L 60.0 515.3 L 60.0 515.3 L 60.0 515.3 L 60.0 515.3 L 60.0 515.3 L 60.0 515.3 L 60.0 515.3 L 60.0 515.3 L 60.0 515.3 L 60.0 515.3 L 60.0 515.3 L 60.0 515.3 L 60.0 515.3 L 60.0 515.3 L 60.0 515.3 L 60.0 515.3 L 60.0 515.3 L 60.0 515.3 L 60.0 515.3 L 60.0 515.3 L 60.0 515.3 L 60.0 515.3 L 60.0 515.3 L 60.0 515.3 L 60.0 515.3" pathLength="1.0" stroke-dasharray="1.0" stroke-dashoffset="1.0">
<animate attributeName="stroke-dashoffset" values="1.0;0" dur="15.98s" repeatCount="indefinite" />
</path>
<circle cx="60.0" cy="515.3" r="4" fill="none" stroke="#1d3557" stroke-width="1.4" />
<circle r="5" fill="#1d3557" stroke="#000" stroke-width="0.6">
<animateMotion dur="15.98s" repeatCount="indefinite" rotate="0">
<mpath xlink:href="#p2t1" href="#p2t1" />
</animateMotion>
</circle>
</g>
<g transform="translate(680,680)">
<rect class="panel" width="560" height="560" />
<text class="title" x="20" y="38">head_on — missile (red) vs target (blue)</text>
<text class="summary" x="20" y="70">tracks        : 2</text>
<text class="summary" x="20" y="92">total samples : 322</text>
<text class="summary" x="20" y="114">duration      : 15.98 s</text>
<text class="summary" x="20" y="136"></text>
<text class="summary-dim" x="20" y="158">legend:</text>
<line x1="30" y1="180.0" x2="60" y2="180.0" stroke="#e63946" stroke-width="2.2" />
<circle cx="45" cy="180.0" r="3.5" fill="#e63946" />
<text class="summary-dim" x="70" y="184.0">missile    end (4793, 100, 0) m  (161 samples)</text>
<line x1="30" y1="202.0" x2="60" y2="202.0" stroke="#1d3557" stroke-width="2.2" />
<circle cx="45" cy="202.0" r="3.5" fill="#1d3557" />
<text class="summary-dim" x="70" y="206.0">target     end (4804, 100, 0) m  (161 samples)</text>
</g>
</svg>
