<?xml version="1.0" encoding="UTF-8"?>
<svg xmlns="http://www.w3.org/2000/svg" xmlns:xlink="http://www.w3.org/1999/xlink" viewBox="0 0 1300 1300" width="1300" height="1300">
<style>
  .bg { fill: #0c1116; }
.panel { fill: #11161c; stroke: #2a3340; stroke-width: 1; }
.grid { stroke: #1c2430; stroke-width: 1; }
.axis { stroke: #4a5260; stroke-width: 1; }
.ground { stroke: #6b5a26; stroke-width: 1.5; stroke-dasharray: 4 3; }
.tick { fill: #7a8290; font: 11px monospace; }
.title { fill: #d6deea; font: 14px monospace; font-weight: bold; }
.subtitle { fill: #7a8290; font: 11px monospace; }
.summary { fill: #d6deea; font: 13px monospace; }
.summary-dim { fill: #7a8290; font: 12px monospace; }
.track { fill: none; stroke-width: 1.8; }
.start { stroke-width: 1.2; }
.end { stroke-width: 1.0; }
</style>
<rect class="bg" width="1300" height="1300" />
<g transform="translate(60,60)">
<rect class="panel" width="560" height="560" />
<text class="title" x="10" y="18">SIDE  X x Y</text>
<text class="subtitle" x="10" y="32">X -&gt; range (horiz),  Y -&gt; alt (vert)</text>
<line class="grid" x1="60.0" y1="50.0" x2="60.0" y2="520.0" />
<line class="grid" x1="60.0" y1="520.0" x2="530.0" y2="520.0" />
<text class="tick" x="60.0" y="534.0" text-anchor="middle">0</text>
<text class="tick" x="56.0" y="524.0" text-anchor="end">0</text>
<line class="grid" x1="154.0" y1="50.0" x2="154.0" y2="520.0" />
<line class="grid" x1="60.0" y1="426.0" x2="530.0" y2="426.0" />
<text class="tick" x="154.0" y="534.0" text-anchor="middle">1.5k</text>
<text class="tick" x="56.0" y="430.0" text-anchor="end">1.5k</text>
<line class="grid" x1="248.0" y1="50.0" x2="248.0" y2="520.0" />
<line class="grid" x1="60.0" y1="332.0" x2="530.0" y2="332.0" />
<text class="tick" x="248.0" y="534.0" text-anchor="middle">3.0k</text>
<text class="tick" x="56.0" y="336.0" text-anchor="end">3.0k</text>
<line class="grid" x1="342.0" y1="50.0" x2="342.0" y2="520.0" />
<line class="grid" x1="60.0" y1="238.0" x2="530.0" y2="238.0" />
<text class="tick" x="342.0" y="534.0" text-anchor="middle">4.5k</text>
<text class="tick" x="56.0" y="242.0" text-anchor="end">4.5k</text>
<line class="grid" x1="436.0" y1="50.0" x2="436.0" y2="520.0" />
<line class="grid" x1="60.0" y1="144.0" x2="530.0" y2="144.0" />
<text class="tick" x="436.0" y="534.0" text-anchor="middle">6.0k</text>
<text class="tick" x="56.0" y="148.0" text-anchor="end">6.0k</text>
<line class="grid" x1="530.0" y1="50.0" x2="530.0" y2="520.0" />
<line class="grid" x1="60.0" y1="50.0" x2="530.0" y2="50.0" />
<text class="tick" x="530.0" y="534.0" text-anchor="middle">7.5k</text>
<text class="tick" x="56.0" y="54.0" text-anchor="end">7.5k</text>
<line class="axis" x1="60.0" y1="50.0" x2="60.0" y2="520.0" />
<line class="axis" x1="60.0" y1="520.0" x2="530.0" y2="520.0" />
<line class="ground" x1="60.0" y1="520.0" x2="530.0" y2="520.0" />
<path id="p0t0" class="track" stroke="#e63946" d="M 60.0 520.0 L 61.9 520.0 L 63.8 520.0 L 65.6 519.9 L 67.5 519.9 L 69.4 519.8 L 71.3 519.7 L 73.2 519.6 L 75.0 519.5 L 76.9 519.3 L 78.8 519.2 L 80.7 519.0 L 82.5 518.8 L 84.4 518.7 L 86.3 518.5 L 88.1 518.2 L 90.0 518.0 L 91.9 517.8 L 93.7 517.5 L 95.6 517.3 L 97.4 517.0 L 99.3 516.7 L 101.1 516.4 L 103.0 516.1 L 104.8 515.8 L 106.7 515.5 L 108.5 515.1 L 110.4 514.8 L 112.2 514.5 L 114.1 514.1 L 115.9 513.7 L 117.7 513.4 L 119.5 513.0 L 121.4 512.6 L 123.2 512.2 L 125.0 511.8 L 126.8 511.4 L 128.6 511.0 L 130.5 510.6 L 132.3 510.2 L 134.1 509.8 L 135.9 509.4 L 137.7 508.9 L 139.4 508.5 L 141.2 508.1 L 143.0 507.6 L 144.8 507.2 L 146.6 506.8 L 148.3 506.3 L 150.1 505.9 L 151.9 505.4 L 153.6 505.0 L 155.4 504.5 L 157.1 504.1 L 158.9 503.6 L 160.6 503.2 L 162.3 502.7 L 164.1 502.3 L 165.8 501.8 L 167.5 501.4 L 169.2 500.9 L 170.9 500.5 L 172.6 500.0 L 174.3 499.6 L 176.0 499.1 L 177.7 498.7 L 179.4 498.2 L 181.1 497.8 L 182.8 497.4 L 184.4 496.9 L 186.1 496.5 L 187.7 496.1 L 189.4 495.6 L 191.0 495.2 L 192.7 494.8 L 194.3 494.3 L 196.0 493.9 L 197.6 493.5 L 199.2 493.1 L 200.8 492.7 L 202.4 492.2 L 204.0 491.8 L 205.6 491.4 L 207.2 491.0 L 208.8 490.6 L 210.4 490.2 L 212.0 489.8 L 213.6 489.4 L 215.2 489.1 L 216.7 488.7 L 218.3 488.3 L 219.9 487.9 L 221.4 487.5 L 223.0 487.2 L 224.5 486.8 L 226.1 486.5 L 227.6 486.1 L 229.1 485.7 L 230.7 485.4 L 232.2 485.0 L 233.7 484.7 L 235.3 484.4 L 236.8 484.0 L 238.3 483.7 L 239.8 483.4 L 241.3 483.0 L 242.9 482.7 L 244.4 482.4 L 245.9 482.1 L 247.4 481.8 L 248.9 481.5 L 250.4 481.2 L 251.9 480.9 L 253.4 480.6 L 254.9 480.3 L 256.4 480.0 L 257.9 479.7 L 259.5 479.5 L 261.0 479.2 L 262.5 478.9 L 264.0 478.6 L 265.5 478.4 L 267.0 478.1 L 268.5 477.9 L 270.0 477.6 L 271.6 477.4 L 273.1 477.1 L 274.6 476.9 L 276.1 476.6 L 277.7 476.4 L 279.2 476.2 L 280.7 475.9 L 282.3 475.7 L 283.8 475.5 L 285.4 475.2 L 287.0 475.0 L 288.5 474.8 L 290.1 474.6 L 291.7 474.4 L 293.2 474.2 L 294.8 474.0 L 296.4 473.8 L 298.0 473.6 L 299.6 473.4 L 301.3 473.2 L 302.9 473.0 L 304.5 472.8 L 306.1 472.6 L 307.8 472.4 L 309.5 472.2 L 311.1 472.1 L 312.8 471.9 L 314.5 471.7 L 316.2 471.5 L 317.9 471.3 L 319.6 471.2 L 321.3 471.0 L 323.0 470.8 L 324.7 470.7 L 326.5 470.5 L 328.2 470.3 L 330.0 470.2 L 331.4 470.0" pathLength="276.5" stroke-dasharray="276.5" stroke-dashoffset="276.5">
<animate attributeName="stroke-dashoffset" values="276.5;0" dur="16.18s" repeatCount="indefinite" />
</path>
<circle cx="60.0" cy="520.0" r="4" fill="none" stroke="#e63946" stroke-width="1.4" />
<circle r="5" fill="#e63946" stroke="#000" stroke-width="0.6">
<animateMotion dur="16.18s" repeatCount="indefinite" rotate="0">
<mpath xlink:href="#p0t0" href="#p0t0" />
</animateMotion>
</circle>
<path id="p0t1" class="track" stroke="#1d3557" d="M 373.3 469.9 L 372.4 469.9 L 371.5 469.9 L 370.5 469.9 L 369.6 469.9 L 368.6 469.9 L 367.7 469.9 L 366.8 469.9 L 365.8 469.9 L 364.9 469.9 L 364.0 469.9 L 363.0 469.9 L 362.1 469.9 L 361.2 469.9 L 360.3 469.9 L 359.4 469.9 L 358.4 469.9 L 357.5 469.9 L 356.6 469.9 L 355.7 469.9 L 354.8 469.9 L 353.9 469.9 L 353.0 469.9 L 352.1 469.9 L 351.3 469.9 L 350.4 469.9 L 349.5 469.9 L 348.6 469.9 L 347.8 469.9 L 346.9 469.9 L 346.1 469.9 L 345.2 469.9 L 344.4 469.9 L 343.6 469.9 L 342.8 469.9 L 341.9 469.9 L 341.1 469.9 L 340.3 469.9 L 339.5 469.9 L 338.7 469.9 L 338.0 469.9 L 337.2 469.9 L 336.4 469.9 L 335.7 469.9 L 334.9 469.9 L 334.2 469.9 L 333.5 469.9 L 332.7 469.9 L 332.0 469.9 L 331.3 469.9 L 330.6 469.9 L 330.0 469.9 L 329.3 469.9 L 328.6 469.9 L 328.0 469.9 L 327.3 469.9 L 326.7 469.9 L 326.1 469.9 L 325.5 469.9 L 324.9 469.9 L 324.3 469.9 L 323.7 469.9 L 323.1 469.9 L 322.6 469.9 L 322.0 469.9 L 321.5 469.9 L 321.0 469.9 L 320.5 469.9 L 320.0 469.9 L 319.5 469.9 L 319.0 469.9 L 318.6 469.9 L 318.1 469.9 L 317.7 469.9 L 317.3 469.9 L 316.8 469.9 L 316.4 469.9 L 316.1 469.9 L 315.7 469.9 L 315.3 469.9 L 315.0 469.9 L 314.7 469.9 L 314.3 469.9 L 314.0 469.9 L 313.7 469.9 L 313.5 469.9 L 313.2 469.9 L 312.9 469.9 L 312.7 469.9 L 312.5 469.9 L 312.3 469.9 L 312.1 469.9 L 311.9 469.9 L 311.7 469.9 L 311.6 469.9 L 311.4 469.9 L 311.3 469.9 L 311.2 469.9 L 311.1 469.9 L 311.0 469.9 L 310.9 469.9 L 310.9 469.9 L 310.8 469.9 L 310.8 469.9 L 310.8 469.9 L 310.8 469.9 L 310.8 469.9 L 310.8 469.9 L 310.8 469.9 L 310.9 469.9 L 311.0 469.9 L 311.0 469.9 L 311.1 469.9 L 311.3 469.9 L 311.4 469.9 L 311.5 469.9 L 311.7 469.9 L 311.8 469.9 L 312.0 469.9 L 312.2 469.9 L 312.4 469.9 L 312.6 469.9 L 312.9 469.9 L 313.1 469.9 L 313.4 469.9 L 313.7 469.9 L 314.0 469.9 L 314.3 469.9 L 314.6 469.9 L 314.9 469.9 L 315.2 469.9 L 315.6 469.9 L 316.0 469.9 L 316.4 469.9 L 316.7 469.9 L 317.2 469.9 L 317.6 469.9 L 318.0 469.9 L 318.5 469.9 L 318.9 469.9 L 319.4 469.9 L 319.9 469.9 L 320.4 469.9 L 320.9 469.9 L 321.4 469.9 L 321.9 469.9 L 322.4 469.9 L 323.0 469.9 L 323.6 469.9 L 324.1 469.9 L 324.7 469.9 L 325.3 469.9 L 325.9 469.9 L 326.6 469.9 L 327.2 469.9 L 327.8 469.9 L 328.5 469.9 L 329.1 469.9 L 329.8 469.9 L 330.5 469.9 L 331.2 469.9 L 331.9 469.9 L 332.4 469.9" pathLength="84.2" stroke-dasharray="84.2" stroke-dashoffset="84.2">
<animate attributeName="stroke-dashoffset" values="84.2;0" dur="16.18s" repeatCount="indefinite" />
</path>
<circle cx="373.3" cy="469.9" r="4" fill="none" stroke="#1d3557" stroke-width="1.4" />
<circle r="5" fill="#1d3557" stroke="#000" stroke-width="0.6">
<animateMotion dur="16.18s" repeatCount="indefinite" rotate="0">
<mpath xlink:href="#p0t1" href="#p0t1" />
</animateMotion>
</circle>
</g>
<g transform="translate(680,60)">
<rect class="panel" width="560" height="560" />
<text class="title" x="10" y="18">TOP   X x Z</text>
<text class="subtitle" x="10" y="32">X -&gt; range (horiz),  Z -&gt; cross (vert)</text>
<line class="grid" x1="60.0" y1="50.0" x2="60.0" y2="520.0" />
<line class="grid" x1="60.0" y1="520.0" x2="530.0" y2="520.0" />
<text class="tick" x="60.0" y="534.0" text-anchor="middle">0</text>
<text class="tick" x="56.0" y="524.0" text-anchor="end">0</text>
<line class="grid" x1="154.0" y1="50.0" x2="154.0" y2="520.0" />
<line class="grid" x1="60.0" y1="426.0" x2="530.0" y2="426.0" />
<text class="tick" x="154.0" y="534.0" text-anchor="middle">1.5k</text>
<text class="tick" x="56.0" y="430.0" text-anchor="end">1.5k</text>
<line class="grid" x1="248.0" y1="50.0" x2="248.0" y2="520.0" />
<line class="grid" x1="60.0" y1="332.0" x2="530.0" y2="332.0" />
<text class="tick" x="248.0" y="534.0" text-anchor="middle">3.0k</text>
<text class="tick" x="56.0" y="336.0" text-anchor="end">3.0k</text>
<line class="grid" x1="342.0" y1="50.0" x2="342.0" y2="520.0" />
<line class="grid" x1="60.0" y1="238.0" x2="530.0" y2="238.0" />
<text class="tick" x="342.0" y="534.0" text-anchor="middle">4.5k</text>
<text class="tick" x="56.0" y="242.0" text-anchor="end">4.5k</text>
<line class="grid" x1="436.0" y1="50.0" x2="436.0" y2="520.0" />
<line class="grid" x1="60.0" y1="144.0" x2="530.0" y2="144.0" />
<text class="tick" x="436.0" y="534.0" text-anchor="middle">6.0k</text>
<text class="tick" x="56.0" y="148.0" text-anchor="end">6.0k</text>
<line class="grid" x1="530.0" y1="50.0" x2="530.0" y2="520.0" />
<line class="grid" x1="60.0" y1="50.0" x2="530.0" y2="50.0" />
<text class="tick" x="530.0" y="534.0" text-anchor="middle">7.5k</text>
<text class="tick" x="56.0" y="54.0" text-anchor="end">7.5k</text>
<line class="axis" x1="60.0" y1="50.0" x2="60.0" y2="520.0" />
<line class="axis" x1="60.0" y1="520.0" x2="530.0" y2="520.0" />
<path id="p1t0" class="track" stroke="#e63946" d="M 60.0 520.0 L 61.9 520.0 L 63.8 520.0 L 65.6 520.0 L 67.5 520.0 L 69.4 520.0 L 71.3 520.0 L 73.2 520.0 L 75.0 520.0 L 76.9 519.9 L 78.8 519.9 L 80.7 519.9 L 82.5 519.8 L 84.4 519.8 L 86.3 519.8 L 88.1 519.7 L 90.0 519.6 L 91.9 519.6 L 93.7 519.5 L 95.6 519.4 L 97.4 519.3 L 99.3 519.2 L 101.1 519.1 L 103.0 519.0 L 104.8 518.8 L 106.7 518.7 L 108.5 518.5 L 110.4 518.4 L 112.2 518.2 L 114.1 518.0 L 115.9 517.8 L 117.7 517.6 L 119.5 517.3 L 121.4 517.1 L 123.2 516.8 L 125.0 516.6 L 126.8 516.3 L 128.6 516.0 L 130.5 515.7 L 132.3 515.4 L 134.1 515.0 L 135.9 514.7 L 137.7 514.3 L 139.4 513.9 L 141.2 513.5 L 143.0 513.1 L 144.8 512.7 L 146.6 512.2 L 148.3 511.8 L 150.1 511.3 L 151.9 510.8 L 153.6 510.3 L 155.4 509.8 L 157.1 509.3 L 158.9 508.8 L 160.6 508.2 L 162.3 507.6 L 164.1 507.0 L 165.8 506.4 L 167.5 505.8 L 169.2 505.2 L 170.9 504.6 L 172.6 503.9 L 174.3 503.2 L 176.0 502.5 L 177.7 501.9 L 179.4 501.1 L 181.1 500.4 L 182.8 499.7 L 184.4 498.9 L 186.1 498.2 L 187.7 497.4 L 189.4 496.6 L 191.0 495.8 L 192.7 495.0 L 194.3 494.2 L 196.0 493.3 L 197.6 492.5 L 199.2 491.6 L 200.8 490.8 L 202.4 489.9 L 204.0 489.0 L 205.6 488.1 L 207.2 487.2 L 208.8 486.3 L 210.4 485.4 L 212.0 484.4 L 213.6 483.5 L 215.2 482.5 L 216.7 481.6 L 218.3 480.6 L 219.9 479.6 L 221.4 478.6 L 223.0 477.6 L 224.5 476.6 L 226.1 475.6 L 227.6 474.6 L 229.1 473.6 L 230.7 472.5 L 232.2 471.5 L 233.7 470.5 L 235.3 469.4 L 236.8 468.4 L 238.3 467.3 L 239.8 466.3 L 241.3 465.2 L 242.9 464.1 L 244.4 463.1 L 245.9 462.0 L 247.4 460.9 L 248.9 459.8 L 250.4 458.7 L 251.9 457.7 L 253.4 456.6 L 254.9 455.5 L 256.4 454.4 L 257.9 453.3 L 259.5 452.2 L 261.0 451.1 L 262.5 450.0 L 264.0 448.9 L 265.5 447.9 L 267.0 446.8 L 268.5 445.7 L 270.0 444.6 L 271.6 443.5 L 273.1 442.4 L 274.6 441.4 L 276.1 440.3 L 277.7 439.2 L 279.2 438.2 L 280.7 437.1 L 282.3 436.1 L 283.8 435.0 L 285.4 434.0 L 287.0 433.0 L 288.5 431.9 L 290.1 430.9 L 291.7 429.9 L 293.2 428.9 L 294.8 427.9 L 296.4 427.0 L 298.0 426.0 L 299.6 425.0 L 301.3 424.1 L 302.9 423.2 L 304.5 422.3 L 306.1 421.3 L 307.8 420.5 L 309.5 419.6 L 311.1 418.7 L 312.8 417.9 L 314.5 417.1 L 316.2 416.2 L 317.9 415.5 L 319.6 414.7 L 321.3 413.9 L 323.0 413.2 L 324.7 412.5 L 326.5 411.8 L 328.2 411.1 L 330.0 410.4 L 331.4 409.9" pathLength="299.6" stroke-dasharray="299.6" stroke-dashoffset="299.6">
<animate attributeName="stroke-dashoffset" values="299.6;0" dur="16.18s" repeatCount="indefinite" />
</path>
<circle cx="60.0" cy="520.0" r="4" fill="none" stroke="#e63946" stroke-width="1.4" />
<circle r="5" fill="#e63946" stroke="#000" stroke-width="0.6">
<animateMotion dur="16.18s" repeatCount="indefinite" rotate="0">
<mpath xlink:href="#p1t0" href="#p1t0" />
</animateMotion>
</circle>
<path id="p1t1" class="track" stroke="#1d3557" d="M 373.3 520.0 L 372.4 520.0 L 371.5 520.0 L 370.5 519.9 L 369.6 519.9 L 368.6 519.8 L 367.7 519.7 L 366.8 519.6 L 365.8 519.5 L 364.9 519.4 L 364.0 519.3 L 363.0 519.1 L 362.1 519.0 L 361.2 518.8 L 360.3 518.6 L 359.4 518.4 L 358.4 518.2 L 357.5 517.9 L 356.6 517.7 L 355.7 517.4 L 354.8 517.2 L 353.9 516.9 L 353.0 516.6 L 352.1 516.3 L 351.3 515.9 L 350.4 515.6 L 349.5 515.3 L 348.6 514.9 L 347.8 514.5 L 346.9 514.1 L 346.1 513.7 L 345.2 513.3 L 344.4 512.9 L 343.6 512.4 L 342.8 512.0 L 341.9 511.5 L 341.1 511.0 L 340.3 510.5 L 339.5 510.0 L 338.7 509.5 L 338.0 509.0 L 337.2 508.5 L 336.4 507.9 L 335.7 507.4 L 334.9 506.8 L 334.2 506.2 L 333.5 505.6 L 332.7 505.0 L 332.0 504.4 L 331.3 503.8 L 330.6 503.1 L 330.0 502.5 L 329.3 501.8 L 328.6 501.2 L 328.0 500.5 L 327.3 499.8 L 326.7 499.1 L 326.1 498.4 L 325.5 497.7 L 324.9 496.9 L 324.3 496.2 L 323.7 495.5 L 323.1 494.7 L 322.6 494.0 L 322.0 493.2 L 321.5 492.4 L 321.0 491.6 L 320.5 490.8 L 320.0 490.1 L 319.5 489.2 L 319.0 488.4 L 318.6 487.6 L 318.1 486.8 L 317.7 486.0 L 317.3 485.1 L 316.8 484.3 L 316.4 483.4 L 316.1 482.6 L 315.7 481.7 L 315.3 480.8 L 315.0 480.0 L 314.7 479.1 L 314.3 478.2 L 314.0 477.3 L 313.7 476.4 L 313.5 475.5 L 313.2 474.6 L 312.9 473.7 L 312.7 472.8 L 312.5 471.9 L 312.3 471.0 L 312.1 470.0 L 311.9 469.1 L 311.7 468.2 L 311.6 467.3 L 311.4 466.3 L 311.3 465.4 L 311.2 464.5 L 311.1 463.5 L 311.0 462.6 L 310.9 461.7 L 310.9 460.7 L 310.8 459.8 L 310.8 458.9 L 310.8 457.9 L 310.8 457.0 L 310.8 456.0 L 310.8 455.1 L 310.8 454.2 L 310.9 453.2 L 311.0 452.3 L 311.0 451.3 L 311.1 450.4 L 311.3 449.5 L 311.4 448.5 L 311.5 447.6 L 311.7 446.7 L 311.8 445.8 L 312.0 444.8 L 312.2 443.9 L 312.4 443.0 L 312.6 442.1 L 312.9 441.2 L 313.1 440.3 L 313.4 439.4 L 313.7 438.5 L 314.0 437.6 L 314.3 436.7 L 314.6 435.8 L 314.9 434.9 L 315.2 434.0 L 315.6 433.2 L 316.0 432.3 L 316.4 431.5 L 316.7 430.6 L 317.2 429.8 L 317.6 428.9 L 318.0 428.1 L 318.5 427.3 L 318.9 426.4 L 319.4 425.6 L 319.9 424.8 L 320.4 424.0 L 320.9 423.2 L 321.4 422.4 L 321.9 421.7 L 322.4 420.9 L 323.0 420.1 L 323.6 419.4 L 324.1 418.6 L 324.7 417.9 L 325.3 417.2 L 325.9 416.5 L 326.6 415.7 L 327.2 415.0 L 327.8 414.4 L 328.5 413.7 L 329.1 413.0 L 329.8 412.3 L 330.5 411.7 L 331.2 411.1 L 331.9 410.4 L 332.4 409.9" pathLength="152.1" stroke-dasharray="152.1" stroke-dashoffset="152.1">
<animate attributeName="stroke-dashoffset" values="152.1;0" dur="16.18s" repeatCount="indefinite" />
</path>
<circle cx="373.3" cy="520.0" r="4" fill="none" stroke="#1d3557" stroke-width="1.4" />
<circle r="5" fill="#1d3557" stroke="#000" stroke-width="0.6">
<animateMotion dur="16.18s" repeatCount="indefinite" rotate="0">
<mpath xlink:href="#p1t1" href="#p1t1" />
</animateMotion>
</circle>
</g>
<g transform="translate(60,680)">
<rect class="panel" width="560" height="560" />
<text class="title" x="10" y="18">FRONT Z x Y</text>
<text class="subtitle" x="10" y="32">Z -&gt; cross (horiz),  Y -&gt; alt (vert)</text>
<line class="grid" x1="60.0" y1="50.0" x2="60.0" y2="520.0" />
<line class="grid" x1="60.0" y1="520.0" x2="530.0" y2="520.0" />
<text class="tick" x="60.0" y="534.0" text-anchor="middle">0</text>
<text class="tick" x="56.0" y="524.0" text-anchor="end">0</text>
<line class="grid" x1="154.0" y1="50.0" x2="154.0" y2="520.0" />
<line class="grid" x1="60.0" y1="426.0" x2="530.0" y2="426.0" />
<text class="tick" x="154.0" y="534.0" text-anchor="middle">1.5k</text>
<text class="tick" x="56.0" y="430.0" text-anchor="end">1.5k</text>
<line class="grid" x1="248.0" y1="50.0" x2="248.0" y2="520.0" />
<line class="grid" x1="60.0" y1="332.0" x2="530.0" y2="332.0" />
<text class="tick" x="248.0" y="534.0" text-anchor="middle">3.0k</text>
<text class="tick" x="56.0" y="336.0" text-anchor="end">3.0k</text>
<line class="grid" x1="342.0" y1="50.0" x2="342.0" y2="520.0" />
<line class="grid" x1="60.0" y1="238.0" x2="530.0" y2="238.0" />
<text class="tick" x="342.0" y="534.0" text-anchor="middle">4.5k</text>
<text class="tick" x="56.0" y="242.0" text-anchor="end">4.5k</text>
<line class="grid" x1="436.0" y1="50.0" x2="436.0" y2="520.0" />
<line class="grid" x1="60.0" y1="144.0" x2="530.0" y2="144.0" />
<text class="tick" x="436.0" y="534.0" text-anchor="middle">6.0k</text>
<text class="tick" x="56.0" y="148.0" text-anchor="end">6.0k</text>
<line class="grid" x1="530.0" y1="50.0" x2="530.0" y2="520.0" />
<line class="grid" x1="60.0" y1="50.0" x2="530.0" y2="50.0" />
<text class="tick" x="530.0" y="534.0" text-anchor="middle">7.5k</text>
<text class="tick" x="56.0" y="54.0" text-anchor="end">7.5k</text>
<line class="axis" x1="60.0" y1="50.0" x2="60.0" y2="520.0" />
<line class="axis" x1="60.0" y1="520.0" x2="530.0" y2="520.0" />
<line class="ground" x1="60.0" y1="520.0" x2="530.0" y2="520.0" />
<path id="p2t0" class="track" stroke="#e63946" d="M 60.0 520.0 L 60.0 520.0 L 60.0 520.0 L 60.0 519.9 L 60.0 519.9 L 60.0 519.8 L 60.0 519.7 L 60.0 519.6 L 60.0 519.5 L 60.1 519.3 L 60.1 519.2 L 60.1 519.0 L 60.2 518.8 L 60.2 518.7 L 60.2 518.5 L 60.3 518.2 L 60.4 518.0 L 60.4 517.8 L 60.5 517.5 L 60.6 517.3 L 60.7 517.0 L 60.8 516.7 L 60.9 516.4 L 61.0 516.1 L 61.2 515.8 L 61.3 515.5 L 61.5 515.1 L 61.6 514.8 L 61.8 514.5 L 62.0 514.1 L 62.2 513.7 L 62.4 513.4 L 62.7 513.0 L 62.9 512.6 L 63.2 512.2 L 63.4 511.8 L 63.7 511.4 L 64.0 511.0 L 64.3 510.6 L 64.6 510.2 L 65.0 509.8 L 65.3 509.4 L 65.7 508.9 L 66.1 508.5 L 66.5 508.1 L 66.9 507.6 L 67.3 507.2 L 67.8 506.8 L 68.2 506.3 L 68.7 505.9 L 69.2 505.4 L 69.7 505.0 L 70.2 504.5 L 70.7 504.1 L 71.2 503.6 L 71.8 503.2 L 72.4 502.7 L 73.0 502.3 L 73.6 501.8 L 74.2 501.4 L 74.8 500.9 L 75.4 500.5 L 76.1 500.0 L 76.8 499.6 L 77.5 499.1 L 78.1 498.7 L 78.9 498.2 L 79.6 497.8 L 80.3 497.4 L 81.1 496.9 L 81.8 496.5 L 82.6 496.1 L 83.4 495.6 L 84.2 495.2 L 85.0 494.8 L 85.8 494.3 L 86.7 493.9 L 87.5 493.5 L 88.4 493.1 L 89.2 492.7 L 90.1 492.2 L 91.0 491.8 L 91.9 491.4 L 92.8 491.0 L 93.7 490.6 L 94.6 490.2 L 95.6 489.8 L 96.5 489.4 L 97.5 489.1 L 98.4 488.7 L 99.4 488.3 L 100.4 487.9 L 101.4 487.5 L 102.4 487.2 L 103.4 486.8 L 104.4 486.5 L 105.4 486.1 L 106.4 485.7 L 107.5 485.4 L 108.5 485.0 L 109.5 484.7 L 110.6 484.4 L 111.6 484.0 L 112.7 483.7 L 113.7 483.4 L 114.8 483.0 L 115.9 482.7 L 116.9 482.4 L 118.0 482.1 L 119.1 481.8 L 120.2 481.5 L 121.3 481.2 L 122.3 480.9 L 123.4 480.6 L 124.5 480.3 L 125.6 480.0 L 126.7 479.7 L 127.8 479.5 L 128.9 479.2 L 130.0 478.9 L 131.1 478.6 L 132.1 478.4 L 133.2 478.1 L 134.3 477.9 L 135.4 477.6 L 136.5 477.4 L 137.6 477.1 L 138.6 476.9 L 139.7 476.6 L 140.8 476.4 L 141.8 476.2 L 142.9 475.9 L 143.9 475.7 L 145.0 475.5 L 146.0 475.2 L 147.0 475.0 L 148.1 474.8 L 149.1 474.6 L 150.1 474.4 L 151.1 474.2 L 152.1 474.0 L 153.0 473.8 L 154.0 473.6 L 155.0 473.4 L 155.9 473.2 L 156.8 473.0 L 157.7 472.8 L 158.7 472.6 L 159.5 472.4 L 160.4 472.2 L 161.3 472.1 L 162.1 471.9 L 162.9 471.7 L 163.8 471.5 L 164.5 471.3 L 165.3 471.2 L 166.1 471.0 L 166.8 470.8 L 167.5 470.7 L 168.2 470.5 L 168.9 470.3 L 169.6 470.2 L 170.1 470.0" pathLength="125.6" stroke-dasharray="125.6" stroke-dashoffset="125.6">
<animate attributeName="stroke-dashoffset" values="125.6;0" dur="16.18s" repeatCount="indefinite" />
</path>
<circle cx="60.0" cy="520.0" r="4" fill="none" stroke="#e63946" stroke-width="1.4" />
<circle r="5" fill="#e63946" stroke="#000" stroke-width="0.6">
<animateMotion dur="16.18s" repeatCount="indefinite" rotate="0">
<mpath xlink:href="#p2t0" href="#p2t0" />
</animateMotion>
</circle>
<path id="p2t1" class="track" stroke="#1d3557" d="M 60.0 469.9 L 60.0 469.9 L 60.0 469.9 L 60.1 469.9 L 60.1 469.9 L 60.2 469.9 L 60.3 469.9 L 60.4 469.9 L 60.5 469.9 L 60.6 469.9 L 60.7 469.9 L 60.9 469.9 L 61.0 469.9 L 61.2 469.9 L 61.4 469.9 L 61.6 469.9 L 61.8 469.9 L 62.1 469.9 L 62.3 469.9 L 62.6 469.9 L 62.8 469.9 L 63.1 469.9 L 63.4 469.9 L 63.7 469.9 L 64.1 469.9 L 64.4 469.9 L 64.7 469.9 L 65.1 469.9 L 65.5 469.9 L 65.9 469.9 L 66.3 469.9 L 66.7 469.9 L 67.1 469.9 L 67.6 469.9 L 68.0 469.9 L 68.5 469.9 L 69.0 469.9 L 69.5 469.9 L 70.0 469.9 L 70.5 469.9 L 71.0 469.9 L 71.5 469.9 L 72.1 469.9 L 72.6 469.9 L 73.2 469.9 L 73.8 469.9 L 74.4 469.9 L 75.0 469.9 L 75.6 469.9 L 76.2 469.9 L 76.9 469.9 L 77.5 469.9 L 78.2 469.9 L 78.8 469.9 L 79.5 469.9 L 80.2 469.9 L 80.9 469.9 L 81.6 469.9 L 82.3 469.9 L 83.1 469.9 L 83.8 469.9 L 84.5 469.9 L 85.3 469.9 L 86.0 469.9 L 86.8 469.9 L 87.6 469.9 L 88.4 469.9 L 89.2 469.9 L 89.9 469.9 L 90.8 469.9 L 91.6 469.9 L 92.4 469.9 L 93.2 469.9 L 94.0 469.9 L 94.9 469.9 L 95.7 469.9 L 96.6 469.9 L 97.4 469.9 L 98.3 469.9 L 99.2 469.9 L 100.0 469.9 L 100.9 469.9 L 101.8 469.9 L 102.7 469.9 L 103.6 469.9 L 104.5 469.9 L 105.4 469.9 L 106.3 469.9 L 107.2 469.9 L 108.1 469.9 L 109.0 469.9 L 110.0 469.9 L 110.9 469.9 L 111.8 469.9 L 112.7 469.9 L 113.7 469.9 L 114.6 469.9 L 115.5 469.9 L 116.5 469.9 L 117.4 469.9 L 118.3 469.9 L 119.3 469.9 L 120.2 469.9 L 121.1 469.9 L 122.1 469.9 L 123.0 469.9 L 124.0 469.9 L 124.9 469.9 L 125.8 469.9 L 126.8 469.9 L 127.7 469.9 L 128.7 469.9 L 129.6 469.9 L 130.5 469.9 L 131.5 469.9 L 132.4 469.9 L 133.3 469.9 L 134.2 469.9 L 135.2 469.9 L 136.1 469.9 L 137.0 469.9 L 137.9 469.9 L 138.8 469.9 L 139.7 469.9 L 140.6 469.9 L 141.5 469.9 L 142.4 469.9 L 143.3 469.9 L 144.2 469.9 L 145.1 469.9 L 146.0 469.9 L 146.8 469.9 L 147.7 469.9 L 148.5 469.9 L 149.4 469.9 L 150.2 469.9 L 151.1 469.9 L 151.9 469.9 L 152.7 469.9 L 153.6 469.9 L 154.4 469.9 L 155.2 469.9 L 156.0 469.9 L 156.8 469.9 L 157.6 469.9 L 158.3 469.9 L 159.1 469.9 L 159.9 469.9 L 160.6 469.9 L 161.4 469.9 L 162.1 469.9 L 162.8 469.9 L 163.5 469.9 L 164.3 469.9 L 165.0 469.9 L 165.6 469.9 L 166.3 469.9 L 167.0 469.9 L 167.7 469.9 L 168.3 469.9 L 168.9 469.9 L 169.6 469.9 L 170.1 469.9" pathLength="110.1" stroke-dasharray="110.1" stroke-dashoffset="110.1">
<animate attributeName="stroke-dashoffset" values="110.1;0" dur="16.18s" repeatCount="indefinite" />
</path>
<circle cx="60.0" cy="469.9" r="4" fill="none" stroke="#1d3557" stroke-width="1.4" />
<circle r="5" fill="#1d3557" stroke="#000" stroke-width="0.6">
<animateMotion dur="16.18s" repeatCount="indefinite" rotate="0">
<mpath xlink:href="#p2t1" href="#p2t1" />
</animateMotion>
</circle>
</g>
<g transform="translate(680,680)">
<rect class="panel" width="560" height="560" />
<text class="title" x="20" y="38">turning — missile (red) vs target (blue)</text>
<text class="summary" x="20" y="70">tracks        : 2</text>
<text class="summary" x="20" y="92">total samples : 326</text>
<text class="summary" x="20" y="114">duration      : 16.18 s</text>
<text class="summary" x="20" y="136"></text>
<text class="summary-dim" x="20" y="158">legend:</text>
<line x1="30" y1="180.0" x2="60" y2="180.0" stroke="#e63946" stroke-width="2.2" />
<circle cx="45" cy="180.0" r="3.5" fill="#e63946" />
<text class="summary-dim" x="70" y="184.0">missile    end (4331, 797, 1756) m  (163 samples)</text>
<line x1="30" y1="202.0" x2="60" y2="202.0" stroke="#1d3557" stroke-width="2.2" />
<circle cx="45" cy="202.0" r="3.5" fill="#1d3557" />
<text class="summary-dim" x="70" y="206.0">target     end (4347, 800, 1756) m  (163 samples)</text>
</g>
</svg>
